<svg width="621" height="286" viewBox="0 0 621 286" fill="none" xmlns="http://www.w3.org/2000/svg">
<rect width="519" height="31" transform="translate(0 0.5)" fill="white" fill-opacity="0.2"/>
<path d="M7.992 24.836C6.744 24.836 5.656 24.612 4.728 24.164C3.8 23.716 3.08 23.052 2.568 22.172C2.056 21.276 1.8 20.18 1.8 18.884V7.7H3.792V18.908C3.792 20.284 4.16 21.316 4.896 22.004C5.632 22.692 6.664 23.036 7.992 23.036C9.32 23.036 10.352 22.692 11.088 22.004C11.824 21.316 12.192 20.284 12.192 18.908V7.7H14.208V18.884C14.208 20.18 13.952 21.276 13.44 22.172C12.928 23.052 12.2 23.716 11.256 24.164C10.328 24.612 9.24 24.836 7.992 24.836ZM24.1444 24.5V7.7H26.1604V22.676H34.6564V24.5H24.1444ZM45.4811 24.5V9.524H40.0811V7.7H52.8971V9.524H47.4971V24.5H45.4811ZM61.7025 24.5V7.7H63.7185V24.5H61.7025ZM73.8019 24.5V7.7H77.6419L82.1059 23.228H82.4179L86.8819 7.7H90.7219V24.5H88.7779V9.02H88.4419L84.0019 24.5H80.5219L76.0819 9.02H75.7459V24.5H73.8019ZM99.4875 24.5L104.671 7.7H108.223L113.407 24.5H111.319L110.023 20.252H102.871L101.575 24.5H99.4875ZM103.375 18.428H109.495L106.615 8.924H106.279L103.375 18.428ZM124.488 24.5V9.524H119.088V7.7H131.904V9.524H126.504V24.5H124.488ZM140.709 24.5V7.7H151.053V9.524H142.725V15.14H150.381V16.964H142.725V22.676H151.173V24.5H140.709ZM178.733 24.836C177.485 24.836 176.381 24.58 175.421 24.068C174.477 23.54 173.733 22.772 173.189 21.764C172.661 20.756 172.397 19.508 172.397 18.02V14.18C172.397 11.956 172.989 10.268 174.173 9.116C175.357 7.948 176.949 7.364 178.949 7.364C180.933 7.364 182.445 7.908 183.485 8.996C184.525 10.084 185.045 11.54 185.045 13.364V13.484H183.053V13.316C183.053 12.516 182.909 11.804 182.621 11.18C182.333 10.556 181.885 10.068 181.277 9.716C180.669 9.348 179.893 9.164 178.949 9.164C177.525 9.164 176.413 9.604 175.613 10.484C174.813 11.348 174.413 12.564 174.413 14.132V18.068C174.413 19.636 174.813 20.86 175.613 21.74C176.413 22.604 177.533 23.036 178.973 23.036C180.381 23.036 181.413 22.636 182.069 21.836C182.741 21.036 183.077 19.972 183.077 18.644V18.236H177.989V16.508H185.045V24.5H183.221V22.676H182.885C182.709 23.028 182.461 23.372 182.141 23.708C181.821 24.044 181.389 24.316 180.845 24.524C180.301 24.732 179.597 24.836 178.733 24.836ZM193.641 24.5L198.825 7.7H202.377L207.561 24.5H205.473L204.177 20.252H197.025L195.729 24.5H193.641ZM197.529 18.428H203.649L200.769 8.924H200.433L197.529 18.428ZM216.318 24.5V7.7H220.158L224.622 23.228H224.934L229.398 7.7H233.238V24.5H231.294V9.02H230.958L226.518 24.5H223.038L218.598 9.02H218.262V24.5H216.318ZM243.323 24.5V7.7H245.339V24.5H243.323ZM255.423 24.5V7.7H259.335L265.191 23.228H265.503V7.7H267.495V24.5H263.583L257.751 8.948H257.415V24.5H255.423ZM283.456 24.836C282.208 24.836 281.104 24.58 280.144 24.068C279.2 23.54 278.456 22.772 277.912 21.764C277.384 20.756 277.12 19.508 277.12 18.02V14.18C277.12 11.956 277.712 10.268 278.896 9.116C280.08 7.948 281.672 7.364 283.672 7.364C285.656 7.364 287.168 7.908 288.208 8.996C289.248 10.084 289.768 11.54 289.768 13.364V13.484H287.776V13.316C287.776 12.516 287.632 11.804 287.344 11.18C287.056 10.556 286.608 10.068 286 9.716C285.392 9.348 284.616 9.164 283.672 9.164C282.248 9.164 281.136 9.604 280.336 10.484C279.536 11.348 279.136 12.564 279.136 14.132V18.068C279.136 19.636 279.536 20.86 280.336 21.74C281.136 22.604 282.256 23.036 283.696 23.036C285.104 23.036 286.136 22.636 286.792 21.836C287.464 21.036 287.8 19.972 287.8 18.644V18.236H282.712V16.508H289.768V24.5H287.944V22.676H287.608C287.432 23.028 287.184 23.372 286.864 23.708C286.544 24.044 286.112 24.316 285.568 24.524C285.024 24.732 284.32 24.836 283.456 24.836ZM312.088 24.5V7.7H322.432V9.524H314.104V15.14H321.76V16.964H314.104V22.676H322.552V24.5H312.088ZM330.7 24.5L336.124 16.028L330.772 7.7H333.148L337.42 14.636H337.732L342.028 7.7H344.38L339.052 16.028L344.476 24.5H342.124L337.732 17.42H337.42L333.052 24.5H330.7ZM353.396 24.5V7.7H359.828C360.836 7.7 361.732 7.9 362.516 8.3C363.316 8.684 363.948 9.236 364.412 9.956C364.876 10.676 365.108 11.548 365.108 12.572V12.884C365.108 13.892 364.868 14.764 364.388 15.5C363.924 16.22 363.292 16.772 362.492 17.156C361.692 17.54 360.804 17.732 359.828 17.732H355.412V24.5H353.396ZM355.412 15.908H359.612C360.684 15.908 361.532 15.644 362.156 15.116C362.78 14.572 363.092 13.812 363.092 12.836V12.596C363.092 11.62 362.78 10.868 362.156 10.34C361.548 9.796 360.7 9.524 359.612 9.524H355.412V15.908ZM374.05 24.5V7.7H384.394V9.524H376.066V15.14H383.722V16.964H376.066V22.676H384.514V24.5H374.05ZM393.814 24.5V7.7H400.606C401.646 7.7 402.558 7.884 403.342 8.252C404.142 8.604 404.766 9.116 405.214 9.788C405.662 10.444 405.886 11.236 405.886 12.164V12.428C405.886 13.532 405.622 14.404 405.094 15.044C404.566 15.684 403.942 16.116 403.222 16.34V16.676C403.798 16.692 404.27 16.884 404.638 17.252C405.022 17.604 405.214 18.14 405.214 18.86V24.5H403.222V19.1C403.222 18.62 403.086 18.252 402.814 17.996C402.558 17.74 402.166 17.612 401.638 17.612H395.83V24.5H393.814ZM395.83 15.788H400.414C401.518 15.788 402.366 15.524 402.958 14.996C403.566 14.452 403.87 13.7 403.87 12.74V12.572C403.87 11.612 403.574 10.868 402.982 10.34C402.39 9.796 401.534 9.524 400.414 9.524H395.83V15.788ZM415.194 24.5V7.7H417.21V24.5H415.194ZM427.294 24.5V7.7H437.638V9.524H429.31V15.14H436.966V16.964H429.31V22.676H437.758V24.5H427.294ZM447.057 24.5V7.7H450.969L456.825 23.228H457.137V7.7H459.129V24.5H455.217L449.385 8.948H449.049V24.5H447.057ZM475.307 24.836C473.307 24.836 471.715 24.26 470.531 23.108C469.347 21.94 468.755 20.244 468.755 18.02V14.18C468.755 11.956 469.347 10.268 470.531 9.116C471.715 7.948 473.307 7.364 475.307 7.364C477.291 7.364 478.811 7.916 479.867 9.02C480.939 10.124 481.475 11.636 481.475 13.556V13.676H479.483V13.484C479.483 12.22 479.139 11.188 478.451 10.388C477.779 9.572 476.731 9.164 475.307 9.164C473.883 9.164 472.771 9.604 471.971 10.484C471.171 11.348 470.771 12.564 470.771 14.132V18.068C470.771 19.636 471.171 20.86 471.971 21.74C472.771 22.604 473.883 23.036 475.307 23.036C476.731 23.036 477.779 22.636 478.451 21.836C479.139 21.02 479.483 19.98 479.483 18.716V18.332H481.475V18.644C481.475 20.564 480.939 22.076 479.867 23.18C478.811 24.284 477.291 24.836 475.307 24.836ZM490.873 24.5V7.7H501.217V9.524H492.889V15.14H500.545V16.964H492.889V22.676H501.337V24.5H490.873Z" fill="white"/>
<path d="M3.84 95.5V61.9H24.528V65.548H7.872V76.78H23.184V80.428H7.872V91.852H24.768V95.5H3.84ZM31.0309 95.5V61.9H34.8229V95.5H31.0309ZM53.5485 96.172C51.1805 96.172 49.1005 95.676 47.3085 94.684C45.5165 93.66 44.1245 92.236 43.1325 90.412C42.1405 88.588 41.6445 86.476 41.6445 84.076V83.5C41.6445 81.068 42.1405 78.94 43.1325 77.116C44.1245 75.292 45.5005 73.884 47.2605 72.892C49.0205 71.868 51.0365 71.356 53.3085 71.356C55.5165 71.356 57.4685 71.836 59.1645 72.796C60.8605 73.724 62.1885 75.068 63.1485 76.828C64.1085 78.588 64.5885 80.652 64.5885 83.02V84.748H45.4365C45.5325 87.276 46.3485 89.26 47.8845 90.7C49.4205 92.108 51.3405 92.812 53.6445 92.812C55.6605 92.812 57.2125 92.348 58.3005 91.42C59.3885 90.492 60.2205 89.388 60.7965 88.108L64.0605 89.692C63.5805 90.684 62.9085 91.676 62.0445 92.668C61.2125 93.66 60.1085 94.492 58.7325 95.164C57.3885 95.836 55.6605 96.172 53.5485 96.172ZM45.4845 81.628H60.7485C60.6205 79.452 59.8685 77.756 58.4925 76.54C57.1485 75.324 55.4205 74.716 53.3085 74.716C51.1645 74.716 49.4045 75.324 48.0285 76.54C46.6525 77.756 45.8045 79.452 45.4845 81.628ZM76.1704 95.5L67.7704 72.028H71.8024L78.8584 92.668H79.5304L86.5864 72.028H90.6184L82.2184 95.5H76.1704ZM102.543 96.172C100.911 96.172 99.4234 95.884 98.0794 95.308C96.7354 94.732 95.6794 93.9 94.9114 92.812C94.1434 91.724 93.7594 90.396 93.7594 88.828C93.7594 87.228 94.1434 85.916 94.9114 84.892C95.6794 83.836 96.7354 83.052 98.0794 82.54C99.4234 81.996 100.927 81.724 102.591 81.724H110.511V79.996C110.511 78.332 110.015 77.02 109.023 76.06C108.063 75.1 106.623 74.62 104.703 74.62C102.815 74.62 101.343 75.084 100.287 76.012C99.2314 76.908 98.5114 78.124 98.1274 79.66L94.5754 78.508C94.9594 77.196 95.5674 76.012 96.3994 74.956C97.2314 73.868 98.3354 73.004 99.7114 72.364C101.119 71.692 102.799 71.356 104.751 71.356C107.759 71.356 110.095 72.14 111.759 73.708C113.423 75.244 114.255 77.42 114.255 80.236V90.844C114.255 91.804 114.703 92.284 115.599 92.284H117.759V95.5H114.447C113.391 95.5 112.543 95.212 111.903 94.636C111.263 94.028 110.943 93.228 110.943 92.236V91.996H110.367C110.015 92.604 109.535 93.244 108.927 93.916C108.351 94.556 107.551 95.084 106.527 95.5C105.503 95.948 104.175 96.172 102.543 96.172ZM102.975 92.908C105.215 92.908 107.023 92.252 108.399 90.94C109.807 89.596 110.511 87.724 110.511 85.324V84.796H102.735C101.231 84.796 99.9834 85.132 98.9914 85.804C98.0314 86.444 97.5514 87.42 97.5514 88.732C97.5514 90.044 98.0474 91.068 99.0394 91.804C100.063 92.54 101.375 92.908 102.975 92.908ZM130.046 95.5C128.702 95.5 127.662 95.132 126.926 94.396C126.222 93.66 125.87 92.652 125.87 91.372V75.34H118.814V72.028H125.87V63.676H129.662V72.028H137.342V75.34H129.662V90.796C129.662 91.756 130.126 92.236 131.054 92.236H136.286V95.5H130.046ZM153.392 96.172C151.024 96.172 148.944 95.676 147.152 94.684C145.36 93.66 143.968 92.236 142.976 90.412C141.984 88.588 141.488 86.476 141.488 84.076V83.5C141.488 81.068 141.984 78.94 142.976 77.116C143.968 75.292 145.344 73.884 147.104 72.892C148.864 71.868 150.88 71.356 153.152 71.356C155.36 71.356 157.312 71.836 159.008 72.796C160.704 73.724 162.032 75.068 162.992 76.828C163.952 78.588 164.432 80.652 164.432 83.02V84.748H145.28C145.376 87.276 146.192 89.26 147.728 90.7C149.264 92.108 151.184 92.812 153.488 92.812C155.504 92.812 157.056 92.348 158.144 91.42C159.232 90.492 160.064 89.388 160.64 88.108L163.904 89.692C163.424 90.684 162.752 91.676 161.888 92.668C161.056 93.66 159.952 94.492 158.576 95.164C157.232 95.836 155.504 96.172 153.392 96.172ZM145.328 81.628H160.592C160.464 79.452 159.712 77.756 158.336 76.54C156.992 75.324 155.264 74.716 153.152 74.716C151.008 74.716 149.248 75.324 147.872 76.54C146.496 77.756 145.648 79.452 145.328 81.628ZM191.405 95.5V82.684L179.453 61.9H184.061L193.085 78.028H193.757L202.781 61.9H207.389L195.437 82.684V95.5H191.405ZM218.738 96.172C216.37 96.172 214.274 95.676 212.45 94.684C210.658 93.692 209.25 92.3 208.226 90.508C207.234 88.684 206.738 86.54 206.738 84.076V83.452C206.738 81.02 207.234 78.892 208.226 77.068C209.25 75.244 210.658 73.836 212.45 72.844C214.274 71.852 216.37 71.356 218.738 71.356C221.106 71.356 223.186 71.852 224.978 72.844C226.802 73.836 228.21 75.244 229.202 77.068C230.226 78.892 230.738 81.02 230.738 83.452V84.076C230.738 86.54 230.226 88.684 229.202 90.508C228.21 92.3 226.802 93.692 224.978 94.684C223.186 95.676 221.106 96.172 218.738 96.172ZM218.738 92.764C221.234 92.764 223.218 91.98 224.69 90.412C226.194 88.812 226.946 86.668 226.946 83.98V83.548C226.946 80.86 226.194 78.732 224.69 77.164C223.218 75.564 221.234 74.764 218.738 74.764C216.274 74.764 214.29 75.564 212.786 77.164C211.282 78.732 210.53 80.86 210.53 83.548V83.98C210.53 86.668 211.282 88.812 212.786 90.412C214.29 91.98 216.274 92.764 218.738 92.764ZM246.538 95.932C244.842 95.932 243.274 95.564 241.834 94.828C240.426 94.092 239.306 93.004 238.474 91.564C237.674 90.092 237.274 88.316 237.274 86.236V72.028H241.066V85.948C241.066 88.284 241.642 89.98 242.794 91.036C243.978 92.092 245.562 92.62 247.546 92.62C249.786 92.62 251.626 91.884 253.066 90.412C254.506 88.94 255.226 86.748 255.226 83.836V72.028H259.018V95.5H255.322V91.516H254.65C254.138 92.636 253.258 93.66 252.01 94.588C250.762 95.484 248.938 95.932 246.538 95.932ZM266.953 95.5V72.028H270.649V74.908H271.321C271.737 73.884 272.377 73.132 273.241 72.652C274.105 72.172 275.241 71.932 276.649 71.932H279.433V75.388H276.409C274.713 75.388 273.337 75.868 272.281 76.828C271.257 77.756 270.745 79.212 270.745 81.196V95.5H266.953ZM15.552 143.172C13.056 143.172 10.848 142.66 8.928 141.636C7.04 140.58 5.552 139.044 4.464 137.028C3.408 135.012 2.88 132.516 2.88 129.54V121.86C2.88 117.412 4.064 114.036 6.432 111.732C8.8 109.396 11.984 108.228 15.984 108.228C19.952 108.228 22.976 109.316 25.056 111.492C27.136 113.668 28.176 116.58 28.176 120.228V120.468H24.192V120.132C24.192 118.532 23.904 117.108 23.328 115.86C22.752 114.612 21.856 113.636 20.64 112.932C19.424 112.196 17.872 111.828 15.984 111.828C13.136 111.828 10.912 112.708 9.312 114.468C7.712 116.196 6.912 118.628 6.912 121.764V129.636C6.912 132.772 7.712 135.22 9.312 136.98C10.912 138.708 13.152 139.572 16.032 139.572C18.848 139.572 20.912 138.772 22.224 137.172C23.568 135.572 24.24 133.444 24.24 130.788V129.972H14.064V126.516H28.176V142.5H24.528V138.852H23.856C23.504 139.556 23.008 140.244 22.368 140.916C21.728 141.588 20.864 142.132 19.776 142.548C18.688 142.964 17.28 143.172 15.552 143.172ZM42.8715 143.172C41.2395 143.172 39.7515 142.884 38.4075 142.308C37.0635 141.732 36.0075 140.9 35.2395 139.812C34.4715 138.724 34.0875 137.396 34.0875 135.828C34.0875 134.228 34.4715 132.916 35.2395 131.892C36.0075 130.836 37.0635 130.052 38.4075 129.54C39.7515 128.996 41.2555 128.724 42.9195 128.724H50.8395V126.996C50.8395 125.332 50.3435 124.02 49.3515 123.06C48.3915 122.1 46.9515 121.62 45.0315 121.62C43.1435 121.62 41.6715 122.084 40.6155 123.012C39.5595 123.908 38.8395 125.124 38.4555 126.66L34.9035 125.508C35.2875 124.196 35.8955 123.012 36.7275 121.956C37.5595 120.868 38.6635 120.004 40.0395 119.364C41.4475 118.692 43.1275 118.356 45.0795 118.356C48.0875 118.356 50.4235 119.14 52.0875 120.708C53.7515 122.244 54.5835 124.42 54.5835 127.236V137.844C54.5835 138.804 55.0315 139.284 55.9275 139.284H58.0875V142.5H54.7755C53.7195 142.5 52.8715 142.212 52.2315 141.636C51.5915 141.028 51.2715 140.228 51.2715 139.236V138.996H50.6955C50.3435 139.604 49.8635 140.244 49.2555 140.916C48.6795 141.556 47.8795 142.084 46.8555 142.5C45.8315 142.948 44.5035 143.172 42.8715 143.172ZM43.3035 139.908C45.5435 139.908 47.3515 139.252 48.7275 137.94C50.1355 136.596 50.8395 134.724 50.8395 132.324V131.796H43.0635C41.5595 131.796 40.3115 132.132 39.3195 132.804C38.3595 133.444 37.8795 134.42 37.8795 135.732C37.8795 137.044 38.3755 138.068 39.3675 138.804C40.3915 139.54 41.7035 139.908 43.3035 139.908ZM63.2809 142.5V119.028H66.9769V121.956H67.6489C68.0969 121.124 68.8329 120.356 69.8569 119.652C70.8809 118.948 72.3209 118.596 74.1769 118.596C76.0009 118.596 77.4729 118.996 78.5929 119.796C79.7449 120.596 80.5769 121.572 81.0889 122.724H81.7609C82.3049 121.572 83.1209 120.596 84.2089 119.796C85.3289 118.996 86.8809 118.596 88.8649 118.596C90.4329 118.596 91.8089 118.916 92.9929 119.556C94.1769 120.196 95.1049 121.124 95.7769 122.34C96.4809 123.524 96.8329 124.948 96.8329 126.612V142.5H93.0409V126.948C93.0409 125.38 92.5769 124.148 91.6489 123.252C90.7529 122.324 89.4889 121.86 87.8569 121.86C86.1289 121.86 84.7049 122.42 83.5849 123.54C82.4969 124.66 81.9529 126.276 81.9529 128.388V142.5H78.1609V126.948C78.1609 125.38 77.6969 124.148 76.7689 123.252C75.8729 122.324 74.6089 121.86 72.9769 121.86C71.2489 121.86 69.8249 122.42 68.7049 123.54C67.6169 124.66 67.0729 126.276 67.0729 128.388V142.5H63.2809ZM104.578 142.5V119.028H108.37V142.5H104.578ZM106.498 115.38C105.666 115.38 104.962 115.108 104.386 114.564C103.842 114.02 103.57 113.332 103.57 112.5C103.57 111.636 103.842 110.932 104.386 110.388C104.962 109.844 105.666 109.572 106.498 109.572C107.33 109.572 108.018 109.844 108.562 110.388C109.106 110.932 109.378 111.636 109.378 112.5C109.378 113.332 109.106 114.02 108.562 114.564C108.018 115.108 107.33 115.38 106.498 115.38ZM116.343 142.5V119.028H120.039V123.012H120.711C121.223 121.892 122.087 120.884 123.303 119.988C124.551 119.06 126.375 118.596 128.775 118.596C130.535 118.596 132.103 118.964 133.479 119.7C134.887 120.436 136.007 121.524 136.839 122.964C137.671 124.404 138.087 126.18 138.087 128.292V142.5H134.295V128.58C134.295 126.244 133.703 124.548 132.519 123.492C131.367 122.436 129.799 121.908 127.815 121.908C125.543 121.908 123.687 122.644 122.247 124.116C120.839 125.588 120.135 127.78 120.135 130.692V142.5H116.343ZM144.629 130.884V130.212C144.629 127.748 145.125 125.636 146.117 123.876C147.109 122.116 148.453 120.756 150.149 119.796C151.845 118.836 153.701 118.356 155.717 118.356C158.181 118.356 160.069 118.836 161.381 119.796C162.725 120.724 163.717 121.764 164.357 122.916H165.029V119.028H168.629V147.972C168.629 149.252 168.277 150.26 167.573 150.996C166.869 151.732 165.845 152.1 164.501 152.1H148.565V148.74H163.493C164.453 148.74 164.933 148.26 164.933 147.3V138.372H164.261C163.877 139.076 163.333 139.764 162.629 140.436C161.925 141.108 161.013 141.668 159.893 142.116C158.773 142.532 157.381 142.74 155.717 142.74C153.701 142.74 151.845 142.26 150.149 141.3C148.453 140.34 147.109 138.98 146.117 137.22C145.125 135.428 144.629 133.316 144.629 130.884ZM156.725 139.38C159.157 139.38 161.125 138.612 162.629 137.076C164.165 135.54 164.933 133.428 164.933 130.74V130.356C164.933 127.636 164.165 125.524 162.629 124.02C161.125 122.484 159.157 121.716 156.725 121.716C154.325 121.716 152.341 122.484 150.773 124.02C149.237 125.524 148.469 127.636 148.469 130.356V130.74C148.469 133.428 149.237 135.54 150.773 137.076C152.341 138.612 154.325 139.38 156.725 139.38ZM188.762 142.5V108.9H209.45V112.548H192.794V123.78H208.106V127.428H192.794V138.852H209.69V142.5H188.762ZM214.033 142.5L223.441 130.596L214.321 119.028H218.881L225.889 128.1H226.561L233.521 119.028H238.129L228.961 130.596L238.369 142.5H233.761L226.561 133.14H225.889L218.689 142.5H214.033ZM244.406 152.1V119.028H248.102V122.916H248.774C249.382 121.732 250.358 120.676 251.702 119.748C253.078 118.82 254.982 118.356 257.414 118.356C259.43 118.356 261.27 118.852 262.934 119.844C264.63 120.804 265.974 122.18 266.966 123.972C267.99 125.764 268.502 127.924 268.502 130.452V131.076C268.502 133.572 268.006 135.732 267.014 137.556C266.022 139.38 264.678 140.772 262.982 141.732C261.318 142.692 259.462 143.172 257.414 143.172C255.782 143.172 254.39 142.948 253.238 142.5C252.118 142.084 251.206 141.54 250.502 140.868C249.798 140.196 249.254 139.508 248.87 138.804H248.198V152.1H244.406ZM256.406 139.812C258.838 139.812 260.806 139.044 262.31 137.508C263.846 135.94 264.614 133.764 264.614 130.98V130.548C264.614 127.764 263.846 125.604 262.31 124.068C260.806 122.5 258.838 121.716 256.406 121.716C254.006 121.716 252.022 122.5 250.454 124.068C248.918 125.604 248.15 127.764 248.15 130.548V130.98C248.15 133.764 248.918 135.94 250.454 137.508C252.022 139.044 254.006 139.812 256.406 139.812ZM286.049 143.172C283.681 143.172 281.601 142.676 279.809 141.684C278.017 140.66 276.625 139.236 275.633 137.412C274.641 135.588 274.145 133.476 274.145 131.076V130.5C274.145 128.068 274.641 125.94 275.633 124.116C276.625 122.292 278.001 120.884 279.761 119.892C281.521 118.868 283.537 118.356 285.809 118.356C288.017 118.356 289.969 118.836 291.665 119.796C293.361 120.724 294.689 122.068 295.649 123.828C296.609 125.588 297.089 127.652 297.089 130.02V131.748H277.937C278.033 134.276 278.849 136.26 280.385 137.7C281.921 139.108 283.841 139.812 286.145 139.812C288.161 139.812 289.713 139.348 290.801 138.42C291.889 137.492 292.721 136.388 293.297 135.108L296.561 136.692C296.081 137.684 295.409 138.676 294.545 139.668C293.713 140.66 292.609 141.492 291.233 142.164C289.889 142.836 288.161 143.172 286.049 143.172ZM277.985 128.628H293.249C293.121 126.452 292.369 124.756 290.993 123.54C289.649 122.324 287.921 121.716 285.809 121.716C283.665 121.716 281.905 122.324 280.529 123.54C279.153 124.756 278.305 126.452 277.985 128.628ZM303.703 142.5V119.028H307.399V121.908H308.071C308.487 120.884 309.127 120.132 309.991 119.652C310.855 119.172 311.991 118.932 313.399 118.932H316.183V122.388H313.159C311.463 122.388 310.087 122.868 309.031 123.828C308.007 124.756 307.495 126.212 307.495 128.196V142.5H303.703ZM321.797 142.5V119.028H325.589V142.5H321.797ZM323.717 115.38C322.885 115.38 322.181 115.108 321.605 114.564C321.061 114.02 320.789 113.332 320.789 112.5C320.789 111.636 321.061 110.932 321.605 110.388C322.181 109.844 322.885 109.572 323.717 109.572C324.549 109.572 325.237 109.844 325.781 110.388C326.325 110.932 326.597 111.636 326.597 112.5C326.597 113.332 326.325 114.02 325.781 114.564C325.237 115.108 324.549 115.38 323.717 115.38ZM344.314 143.172C341.946 143.172 339.866 142.676 338.074 141.684C336.282 140.66 334.89 139.236 333.898 137.412C332.906 135.588 332.41 133.476 332.41 131.076V130.5C332.41 128.068 332.906 125.94 333.898 124.116C334.89 122.292 336.266 120.884 338.026 119.892C339.786 118.868 341.802 118.356 344.074 118.356C346.282 118.356 348.234 118.836 349.93 119.796C351.626 120.724 352.954 122.068 353.914 123.828C354.874 125.588 355.354 127.652 355.354 130.02V131.748H336.202C336.298 134.276 337.114 136.26 338.65 137.7C340.186 139.108 342.106 139.812 344.41 139.812C346.426 139.812 347.978 139.348 349.066 138.42C350.154 137.492 350.986 136.388 351.562 135.108L354.826 136.692C354.346 137.684 353.674 138.676 352.81 139.668C351.978 140.66 350.874 141.492 349.498 142.164C348.154 142.836 346.426 143.172 344.314 143.172ZM336.25 128.628H351.514C351.386 126.452 350.634 124.756 349.258 123.54C347.914 122.324 346.186 121.716 344.074 121.716C341.93 121.716 340.17 122.324 338.794 123.54C337.418 124.756 336.57 126.452 336.25 128.628ZM361.968 142.5V119.028H365.664V123.012H366.336C366.848 121.892 367.712 120.884 368.928 119.988C370.176 119.06 372 118.596 374.4 118.596C376.16 118.596 377.728 118.964 379.104 119.7C380.512 120.436 381.632 121.524 382.464 122.964C383.296 124.404 383.712 126.18 383.712 128.292V142.5H379.92V128.58C379.92 126.244 379.328 124.548 378.144 123.492C376.992 122.436 375.424 121.908 373.44 121.908C371.168 121.908 369.312 122.644 367.872 124.116C366.464 125.588 365.76 127.78 365.76 130.692V142.5H361.968ZM402.206 143.172C399.934 143.172 397.886 142.692 396.062 141.732C394.27 140.74 392.846 139.332 391.79 137.508C390.766 135.684 390.254 133.524 390.254 131.028V130.5C390.254 127.972 390.766 125.812 391.79 124.02C392.846 122.196 394.27 120.804 396.062 119.844C397.886 118.852 399.934 118.356 402.206 118.356C404.446 118.356 406.35 118.772 407.918 119.604C409.518 120.436 410.766 121.54 411.662 122.916C412.59 124.292 413.182 125.764 413.438 127.332L409.742 128.1C409.582 126.948 409.198 125.892 408.59 124.932C408.014 123.972 407.198 123.204 406.142 122.628C405.086 122.052 403.79 121.764 402.254 121.764C400.686 121.764 399.278 122.116 398.03 122.82C396.814 123.524 395.838 124.532 395.102 125.844C394.398 127.156 394.046 128.724 394.046 130.548V130.98C394.046 132.804 394.398 134.372 395.102 135.684C395.838 136.996 396.814 138.004 398.03 138.708C399.278 139.412 400.686 139.764 402.254 139.764C404.59 139.764 406.366 139.156 407.582 137.94C408.83 136.724 409.598 135.22 409.886 133.428L413.63 134.244C413.278 135.78 412.638 137.236 411.71 138.612C410.782 139.988 409.518 141.092 407.918 141.924C406.35 142.756 404.446 143.172 402.206 143.172ZM430.845 143.172C428.477 143.172 426.397 142.676 424.605 141.684C422.813 140.66 421.421 139.236 420.429 137.412C419.437 135.588 418.941 133.476 418.941 131.076V130.5C418.941 128.068 419.437 125.94 420.429 124.116C421.421 122.292 422.797 120.884 424.557 119.892C426.317 118.868 428.333 118.356 430.605 118.356C432.813 118.356 434.765 118.836 436.461 119.796C438.157 120.724 439.485 122.068 440.445 123.828C441.405 125.588 441.885 127.652 441.885 130.02V131.748H422.733C422.829 134.276 423.645 136.26 425.181 137.7C426.717 139.108 428.637 139.812 430.941 139.812C432.957 139.812 434.509 139.348 435.597 138.42C436.685 137.492 437.517 136.388 438.093 135.108L441.357 136.692C440.877 137.684 440.205 138.676 439.341 139.668C438.509 140.66 437.405 141.492 436.029 142.164C434.685 142.836 432.957 143.172 430.845 143.172ZM422.781 128.628H438.045C437.917 126.452 437.165 124.756 435.789 123.54C434.445 122.324 432.717 121.716 430.605 121.716C428.461 121.716 426.701 122.324 425.325 123.54C423.949 124.756 423.101 126.452 422.781 128.628Z" fill="white"/>
<path d="M536.907 213.051L534.436 226.831L528.766 225.814C527.9 225.659 527.171 225.345 526.578 224.873C525.97 224.412 525.539 223.833 525.284 223.137C525.016 222.439 524.96 221.657 525.116 220.791L525.165 220.515C525.318 219.662 525.649 218.949 526.158 218.377C526.652 217.815 527.265 217.417 527.998 217.183C528.715 216.959 529.494 216.923 530.334 217.074L533.405 217.624L534.309 212.585L536.907 213.051ZM532.981 219.987L530.166 219.482C529.549 219.371 529.02 219.452 528.578 219.725C528.136 219.998 527.863 220.43 527.757 221.021L527.721 221.217C527.615 221.808 527.722 222.308 528.042 222.717C528.361 223.127 528.829 223.387 529.446 223.498L532.261 224.003L532.981 219.987Z" fill="white"/>
<path d="M519.864 208.656L514.143 221.433L511.843 220.403L517.564 207.626L519.864 208.656Z" fill="white"/>
<path d="M508.152 201.759C508.712 202.19 509.14 202.672 509.438 203.203C509.727 203.746 509.861 204.304 509.84 204.877C509.801 205.452 509.574 206.009 509.159 206.548C508.745 207.087 508.272 207.438 507.742 207.602C507.193 207.769 506.622 207.767 506.03 207.597C505.419 207.429 504.817 207.118 504.226 206.662L502.07 205.003L501.729 205.447C501.444 205.816 501.328 206.207 501.382 206.618C501.427 207.04 501.703 207.446 502.211 207.837C502.707 208.219 503.166 208.388 503.588 208.342C504.002 208.307 504.384 208.139 504.735 207.837L506.097 209.87C505.661 210.174 505.18 210.384 504.653 210.5C504.108 210.618 503.525 210.599 502.906 210.442C502.268 210.287 501.611 209.949 500.934 209.429C499.899 208.632 499.28 207.743 499.076 206.761C498.872 205.78 499.149 204.798 499.905 203.815L502.162 200.884C502.406 200.567 502.38 200.294 502.084 200.067L501.451 199.579L502.719 197.93L504.051 198.955C504.441 199.256 504.691 199.599 504.798 199.985C504.905 200.37 504.836 200.721 504.592 201.038L504.58 201.054L504.881 201.286C505.021 201.192 505.246 201.096 505.557 200.998C505.859 200.912 506.23 200.911 506.669 200.996C507.108 201.082 507.602 201.336 508.152 201.759ZM506.558 203.107C505.999 202.676 505.426 202.48 504.842 202.518C504.239 202.558 503.738 202.837 503.339 203.355L503.217 203.513L505.23 205.063C505.6 205.347 505.951 205.492 506.284 205.496C506.618 205.5 506.894 205.36 507.114 205.074C507.333 204.789 507.401 204.471 507.318 204.121C507.234 203.77 506.981 203.433 506.558 203.107Z" fill="white"/>
<path d="M500.624 189.831L498.835 191.11L495.694 186.718C495.476 186.414 495.205 186.379 494.88 186.612L492.846 188.066L493.056 188.359C493.302 188.314 493.583 188.317 493.9 188.37C494.216 188.422 494.546 188.563 494.89 188.792C495.234 189.022 495.581 189.38 495.93 189.868C496.38 190.497 496.634 191.151 496.694 191.83C496.734 192.506 496.593 193.156 496.269 193.781C495.946 194.406 495.453 194.955 494.792 195.428L489.976 198.871L488.51 196.822L493.163 193.494C493.77 193.06 494.121 192.588 494.216 192.078C494.302 191.557 494.147 191.02 493.752 190.467C493.302 189.838 492.747 189.497 492.087 189.445C491.416 189.4 490.706 189.646 489.957 190.181L485.858 193.113L484.392 191.063L493.893 184.269C494.446 183.873 495.001 183.722 495.559 183.814C496.128 183.899 496.607 184.213 496.994 184.755L500.624 189.831Z" fill="white"/>
<path d="M485.47 168.552L483.168 168.842L482.938 167.016L473.652 168.187L473.882 170.013L471.58 170.303L470.68 163.159C470.573 162.313 470.626 161.56 470.839 160.902C471.036 160.232 471.378 159.691 471.864 159.281C472.335 158.858 472.934 158.602 473.662 158.51L473.86 158.485C474.495 158.405 475.033 158.458 475.473 158.644C475.899 158.832 476.246 159.078 476.513 159.38C476.764 159.671 476.955 159.956 477.084 160.235L477.441 160.19C477.484 159.889 477.596 159.553 477.778 159.18C477.946 158.81 478.22 158.479 478.6 158.19C478.979 157.887 479.499 157.693 480.16 157.61L480.358 157.585C481.126 157.488 481.81 157.584 482.41 157.871C482.998 158.159 483.477 158.603 483.848 159.201C484.217 159.786 484.455 160.496 484.56 161.329L485.47 168.552ZM482.529 164.407L482.219 161.947C482.147 161.378 481.95 160.939 481.629 160.63C481.306 160.308 480.887 160.179 480.371 160.244L480.173 160.269C479.657 160.334 479.282 160.556 479.047 160.935C478.813 161.314 478.732 161.795 478.806 162.377L479.116 164.837L482.529 164.407ZM476.735 165.138L476.429 162.717C476.361 162.174 476.166 161.749 475.845 161.44C475.522 161.118 475.116 160.987 474.627 161.049L474.428 161.074C473.926 161.137 473.564 161.358 473.342 161.735C473.108 162.114 473.026 162.581 473.096 163.137L473.401 165.558L476.735 165.138Z" fill="white"/>
<path d="M485.419 145.264C485.246 146.235 484.889 147.058 484.348 147.734C483.797 148.394 483.109 148.867 482.286 149.153C481.452 149.424 480.523 149.468 479.499 149.285L479.263 149.242C478.239 149.059 477.39 148.698 476.714 148.157C476.026 147.614 475.544 146.939 475.268 146.131C474.98 145.321 474.922 144.43 475.096 143.459C475.267 142.501 475.633 141.706 476.193 141.075C476.739 140.441 477.428 139.995 478.26 139.738C479.079 139.478 479.987 139.437 480.984 139.615L481.831 139.766L480.56 146.874C481.234 146.967 481.824 146.815 482.328 146.418C482.833 146.02 483.146 145.48 483.268 144.798C483.392 144.102 483.333 143.563 483.089 143.181C482.846 142.799 482.556 142.49 482.219 142.254L483.645 140.416C483.953 140.661 484.279 140.997 484.623 141.424C484.955 141.835 485.215 142.356 485.4 142.985C485.573 143.612 485.579 144.371 485.419 145.264ZM478.713 146.523L479.53 141.956C478.956 141.907 478.462 142.056 478.048 142.402C477.636 142.735 477.373 143.223 477.258 143.866C477.138 144.535 477.214 145.097 477.485 145.552C477.756 146.007 478.165 146.33 478.713 146.523Z" fill="white"/>
<path d="M492.281 134.502L490.321 133.504L492.77 128.692C492.94 128.359 492.846 128.102 492.49 127.921L490.262 126.787L490.098 127.107C490.252 127.305 490.378 127.557 490.477 127.862C490.577 128.166 490.604 128.524 490.559 128.935C490.515 129.347 490.356 129.819 490.084 130.354C489.733 131.043 489.27 131.571 488.695 131.936C488.114 132.284 487.472 132.458 486.768 132.459C486.065 132.46 485.35 132.276 484.626 131.907L479.35 129.222L480.493 126.976L485.59 129.571C486.256 129.909 486.837 130.003 487.333 129.852C487.835 129.688 488.24 129.303 488.548 128.697C488.899 128.008 488.946 127.359 488.688 126.749C488.418 126.132 487.873 125.616 487.053 125.198L482.561 122.912L483.704 120.666L494.114 125.964C494.72 126.273 495.11 126.696 495.285 127.234C495.472 127.778 495.414 128.347 495.112 128.941L492.281 134.502Z" fill="white"/>
<path d="M500.606 115.439C499.917 116.145 499.154 116.64 498.319 116.924C497.483 117.208 496.635 117.247 495.774 117.04C494.914 116.834 494.102 116.359 493.338 115.614L493.109 115.39C492.346 114.645 491.85 113.845 491.623 112.99C491.396 112.135 491.414 111.286 491.677 110.444C491.94 109.601 492.416 108.827 493.105 108.121C493.794 107.414 494.556 106.919 495.392 106.636C496.227 106.352 497.076 106.313 497.936 106.519C498.797 106.726 499.609 107.201 500.372 107.946L500.601 108.17C501.365 108.915 501.86 109.715 502.088 110.57C502.315 111.425 502.297 112.274 502.034 113.116C501.771 113.959 501.295 114.733 500.606 115.439ZM499.003 113.875C499.543 113.321 499.813 112.691 499.814 111.984C499.805 111.267 499.466 110.583 498.798 109.932L498.655 109.792C497.987 109.14 497.3 108.823 496.593 108.841C495.886 108.841 495.257 109.122 494.708 109.685C494.168 110.238 493.902 110.873 493.911 111.59C493.91 112.297 494.244 112.977 494.912 113.628L495.055 113.768C495.723 114.42 496.416 114.741 497.132 114.732C497.839 114.714 498.463 114.428 499.003 113.875Z" fill="white"/>
<path d="M510.064 106.92L505.348 98.1927L507.53 97.0138L508.148 98.1575L508.465 97.9863C508.44 97.6053 508.549 97.1752 508.79 96.6963C509.025 96.2056 509.536 95.7479 510.322 95.3232C511.002 94.9555 511.68 94.7938 512.356 94.8379C513.037 94.864 513.667 95.0767 514.246 95.4759C514.819 95.8633 515.302 96.4207 515.695 97.148L518.51 102.356L516.293 103.554L513.573 98.5219C513.218 97.865 512.788 97.4611 512.282 97.3101C511.788 97.1528 511.242 97.2358 510.643 97.5591C509.963 97.9267 509.559 98.4407 509.431 99.101C509.296 99.7496 509.448 100.479 509.885 101.288L512.281 105.722L510.064 106.92Z" fill="white"/>
<path d="M529.893 99.1116C529.121 99.2626 528.358 99.2149 527.603 98.9685C526.859 98.7065 526.211 98.2422 525.66 97.5756C525.108 96.9091 524.729 96.0459 524.521 94.9859L524.46 94.6719C524.253 93.612 524.279 92.6694 524.539 91.8442C524.799 91.019 525.225 90.3514 525.818 89.8414C526.409 89.3183 527.097 88.98 527.882 88.8265C528.471 88.7113 528.975 88.6873 529.396 88.7545C529.827 88.806 530.188 88.9122 530.477 89.0729C530.767 89.2336 531 89.419 531.177 89.6289L531.53 89.5598L530.528 84.4369L533.002 83.9532L535.689 97.6929L533.255 98.1689L533.024 96.9912L532.671 97.0603C532.52 97.4702 532.239 97.8717 531.827 98.2648C531.427 98.6554 530.783 98.9376 529.893 99.1116ZM530.217 96.8067C530.976 96.6583 531.563 96.2921 531.979 95.7081C532.392 95.111 532.506 94.3414 532.322 93.3993L532.284 93.203C532.099 92.2609 531.705 91.5976 531.1 91.2132C530.505 90.8132 529.822 90.6887 529.05 90.8397C528.291 90.9881 527.705 91.3609 527.292 91.9579C526.876 92.5419 526.76 93.305 526.945 94.2471L526.983 94.4434C527.167 95.3855 527.563 96.0553 528.171 96.4528C528.776 96.8371 529.458 96.9551 530.217 96.8067Z" fill="white"/>
<path d="M553.822 98.7494L557.083 85.1346L559.651 85.7496L556.389 99.3644L553.822 98.7494Z" fill="white"/>
<path d="M564.134 101.423L569.068 92.8169L571.219 94.0505L570.682 94.9874L570.994 95.1665C571.311 94.9635 571.702 94.8574 572.168 94.8482C572.641 94.8274 573.161 94.9795 573.728 95.3044C574.341 95.6559 574.763 96.0593 574.994 96.5144C575.231 96.9579 575.339 97.427 575.317 97.9214L575.629 98.1005C576.038 97.8431 576.491 97.6957 576.989 97.6584C577.487 97.6211 578.065 97.7915 578.725 98.1695C579.257 98.4746 579.671 98.8655 579.966 99.3422C580.279 99.814 580.431 100.354 580.42 100.963C580.427 101.566 580.232 102.215 579.834 102.909L576.591 108.565L574.405 107.312L577.558 101.812C577.83 101.338 577.911 100.915 577.801 100.545C577.697 100.162 577.426 99.8454 576.986 99.5934C576.489 99.3082 576.008 99.2479 575.545 99.4126C575.1 99.5724 574.708 99.9473 574.37 100.537L571.455 105.621L569.269 104.367L572.423 98.8673C572.695 98.393 572.776 97.9706 572.665 97.6C572.562 97.2178 572.29 96.9007 571.851 96.6487C571.353 96.3635 570.873 96.3033 570.409 96.468C569.964 96.6277 569.573 97.0026 569.234 97.5925L566.32 102.676L564.134 101.423Z" fill="white"/>
<path d="M584.425 116.504C583.962 115.97 583.638 115.413 583.452 114.833C583.277 114.244 583.256 113.67 583.39 113.113C583.543 112.557 583.877 112.056 584.391 111.61C584.904 111.165 585.437 110.915 585.989 110.859C586.56 110.805 587.119 110.921 587.666 111.206C588.232 111.492 588.759 111.917 589.248 112.481L591.03 114.536L591.453 114.169C591.806 113.863 591.997 113.504 592.026 113.09C592.066 112.667 591.876 112.214 591.457 111.731C591.046 111.257 590.63 111.001 590.207 110.961C589.795 110.913 589.387 111.002 588.983 111.228L588.053 108.965C588.54 108.754 589.054 108.644 589.593 108.635C590.151 108.627 590.718 108.762 591.294 109.039C591.888 109.318 592.465 109.78 593.024 110.425C593.88 111.412 594.31 112.407 594.315 113.409C594.319 114.411 593.853 115.318 592.916 116.131L590.12 118.554C589.818 118.816 589.789 119.088 590.034 119.371L590.558 119.975L588.986 121.338L587.886 120.068C587.562 119.696 587.387 119.31 587.358 118.911C587.33 118.512 587.467 118.181 587.769 117.919L587.784 117.906L587.535 117.619C587.38 117.683 587.14 117.732 586.816 117.766C586.502 117.791 586.139 117.718 585.726 117.547C585.313 117.376 584.879 117.028 584.425 116.504ZM586.254 115.5C586.717 116.034 587.239 116.341 587.819 116.42C588.419 116.5 588.965 116.327 589.459 115.899L589.61 115.767L587.946 113.848C587.64 113.496 587.324 113.284 586.999 113.214C586.673 113.143 586.374 113.226 586.102 113.462C585.83 113.698 585.7 113.996 585.712 114.356C585.724 114.716 585.905 115.097 586.254 115.5Z" fill="white"/>
<path d="M596.935 124.627L597.227 124.497C598.176 124.072 599.07 123.899 599.908 123.977C600.759 124.05 601.499 124.318 602.13 124.781C602.778 125.25 603.268 125.856 603.6 126.599C603.97 127.427 604.104 128.119 604.002 128.675C603.901 129.232 603.735 129.678 603.506 130.015L603.653 130.343L604.748 129.854L605.76 132.118L595.097 136.885C594.477 137.162 593.902 137.2 593.374 136.998C592.833 136.802 592.427 136.399 592.155 135.79L589.445 129.729L591.453 128.831L593.804 134.089C593.956 134.43 594.215 134.519 594.58 134.356L596.936 133.303L596.789 132.974C596.539 132.939 596.262 132.859 595.958 132.732C595.665 132.6 595.37 132.381 595.073 132.076C594.776 131.771 594.502 131.338 594.252 130.778C593.92 130.036 593.789 129.269 593.859 128.478C593.946 127.694 594.24 126.964 594.741 126.287C595.254 125.605 595.985 125.052 596.935 124.627ZM596.554 130.538C596.869 131.244 597.359 131.733 598.021 132.007C598.684 132.28 599.423 132.234 600.238 131.87L600.421 131.788C601.249 131.418 601.776 130.898 602.002 130.227C602.245 129.563 602.206 128.872 601.885 128.154C601.57 127.448 601.081 126.958 600.418 126.685C599.767 126.406 599.028 126.452 598.201 126.822L598.018 126.904C597.203 127.268 596.676 127.788 596.438 128.465C596.199 129.141 596.238 129.832 596.554 130.538Z" fill="white"/>
<path d="M598.566 143.561L608.332 141.815L608.775 144.296L599.01 146.042L598.566 143.561ZM609.695 142.851C609.615 142.405 609.692 141.999 609.924 141.632C610.159 141.279 610.513 141.06 610.985 140.975C611.458 140.891 611.865 140.973 612.208 141.224C612.553 141.487 612.765 141.842 612.845 142.288C612.927 142.748 612.851 143.154 612.616 143.508C612.381 143.861 612.028 144.08 611.555 144.164C611.083 144.249 610.675 144.166 610.332 143.916C609.99 143.666 609.777 143.311 609.695 142.851Z" fill="white"/>
<path d="M599.959 154.053L609.857 154.713L609.692 157.188L608.395 157.101L608.371 157.46C608.706 157.643 609.012 157.964 609.289 158.424C609.579 158.884 609.694 159.56 609.635 160.451C609.583 161.223 609.359 161.883 608.961 162.431C608.576 162.993 608.061 163.413 607.414 163.691C606.781 163.969 606.052 164.081 605.227 164.026L599.32 163.632L599.488 161.117L605.195 161.498C605.94 161.548 606.511 161.399 606.909 161.051C607.305 160.717 607.526 160.21 607.571 159.532C607.623 158.76 607.403 158.144 606.913 157.684C606.436 157.224 605.738 156.964 604.82 156.903L599.791 156.567L599.959 154.053Z" fill="white"/>
<path d="M596.31 174.146C596.56 173.485 596.895 172.934 597.318 172.495C597.752 172.06 598.247 171.769 598.801 171.622C599.363 171.492 599.962 171.547 600.598 171.787C601.235 172.027 601.708 172.376 602.02 172.835C602.339 173.312 602.503 173.858 602.513 174.475C602.531 175.109 602.408 175.775 602.144 176.473L601.185 179.018L601.709 179.216C602.146 179.381 602.553 179.377 602.931 179.206C603.321 179.04 603.629 178.658 603.855 178.059C604.076 177.472 604.104 176.984 603.937 176.593C603.784 176.208 603.511 175.891 603.12 175.644L604.668 173.748C605.086 174.077 605.427 174.476 605.691 174.946C605.963 175.434 606.115 175.996 606.145 176.635C606.183 177.29 606.051 178.017 605.75 178.816C605.289 180.038 604.619 180.89 603.739 181.371C602.86 181.851 601.84 181.873 600.68 181.436L597.218 180.131C596.843 179.989 596.59 180.094 596.459 180.443L596.177 181.191L594.23 180.458L594.823 178.886C594.997 178.424 595.253 178.086 595.59 177.871C595.928 177.656 596.283 177.62 596.658 177.761L596.676 177.768L596.81 177.412C596.68 177.306 596.522 177.118 596.339 176.85C596.167 176.585 596.059 176.231 596.013 175.786C595.967 175.341 596.066 174.795 596.31 174.146ZM598.064 175.277C597.815 175.938 597.794 176.543 598 177.091C598.215 177.656 598.627 178.054 599.239 178.285L599.426 178.355L600.322 175.979C600.486 175.542 600.522 175.164 600.429 174.843C600.336 174.523 600.121 174.3 599.784 174.173C599.447 174.046 599.124 174.073 598.813 174.255C598.502 174.438 598.252 174.778 598.064 175.277Z" fill="white"/>
<path d="M588.573 189.443C588.957 188.915 589.433 188.601 589.999 188.502C590.569 188.422 591.129 188.582 591.678 188.982L596.206 192.278L597.665 190.273L599.347 191.497L597.888 193.502L600.378 195.315L598.895 197.352L596.405 195.54L594.804 197.739L593.122 196.515L594.723 194.316L590.551 191.279C590.228 191.043 589.956 191.077 589.736 191.379L588.606 192.931L586.925 191.707L588.573 189.443Z" fill="white"/>
<path d="M581.421 197.527L587.986 204.964L586.097 206.632L579.532 199.195L581.421 197.527ZM587.809 206.667C588.149 206.367 588.536 206.221 588.97 206.23C589.394 206.246 589.765 206.435 590.083 206.795C590.4 207.154 590.541 207.546 590.506 207.969C590.46 208.4 590.267 208.766 589.927 209.066C589.577 209.375 589.19 209.521 588.766 209.504C588.342 209.487 587.972 209.299 587.654 208.939C587.336 208.579 587.195 208.188 587.231 207.765C587.267 207.342 587.46 206.976 587.809 206.667Z" fill="white"/>
<path d="M568.865 206.101C569.74 205.645 570.619 205.414 571.501 205.405C572.384 205.397 573.201 205.625 573.954 206.09C574.707 206.555 575.33 207.261 575.822 208.207L575.97 208.491C576.462 209.437 576.683 210.352 576.632 211.236C576.58 212.119 576.298 212.92 575.785 213.638C575.271 214.356 574.577 214.942 573.702 215.398C572.827 215.853 571.948 216.085 571.065 216.093C570.183 216.102 569.365 215.873 568.612 215.408C567.859 214.943 567.236 214.238 566.744 213.291L566.596 213.008C566.104 212.061 565.884 211.146 565.935 210.263C565.986 209.38 566.269 208.579 566.782 207.861C567.295 207.143 567.989 206.556 568.865 206.101ZM569.899 208.088C569.213 208.445 568.759 208.959 568.537 209.631C568.321 210.314 568.429 211.07 568.86 211.898L568.952 212.075C569.383 212.903 569.937 213.419 570.614 213.623C571.285 213.844 571.97 213.774 572.668 213.411C573.354 213.054 573.805 212.534 574.02 211.85C574.242 211.179 574.138 210.429 573.707 209.601L573.615 209.424C573.184 208.596 572.627 208.074 571.943 207.858C571.266 207.654 570.585 207.731 569.899 208.088Z" fill="white"/>
<path d="M557.216 211.236L558.967 221L556.526 221.438L556.297 220.159L555.943 220.222C555.846 220.592 555.609 220.966 555.23 221.346C554.853 221.738 554.225 222.013 553.346 222.171C552.585 222.308 551.89 222.249 551.262 221.996C550.624 221.759 550.091 221.36 549.666 220.799C549.243 220.252 548.958 219.572 548.812 218.758L547.767 212.931L550.247 212.486L551.257 218.116C551.389 218.851 551.672 219.369 552.105 219.671C552.525 219.975 553.07 220.067 553.739 219.947C554.501 219.81 555.045 219.448 555.373 218.861C555.704 218.287 555.788 217.547 555.626 216.642L554.736 211.681L557.216 211.236Z" fill="white"/>
<path d="M565.34 165.723H565.321L562.137 149.219C562.137 149.2 562.137 149.2 562.118 149.18C561.628 146.48 560.207 144.037 558.101 142.277C555.995 140.518 553.338 139.553 550.594 139.551L533.407 139.61C530.65 139.606 527.98 140.575 525.868 142.348C523.756 144.12 522.338 146.581 521.864 149.297V149.336L518.68 165.704C518.517 166.613 518.536 167.546 518.735 168.448C518.933 169.351 519.308 170.205 519.838 170.962C520.368 171.718 521.043 172.363 521.823 172.858C522.603 173.354 523.473 173.69 524.383 173.848C524.782 173.927 525.188 173.966 525.594 173.965C527.459 173.961 529.248 173.225 530.575 171.915L530.653 171.817L538.602 163.028L545.418 162.989L553.348 171.836L553.446 171.934C554.763 173.247 556.547 173.984 558.407 173.985C558.82 173.985 559.232 173.945 559.637 173.868C561.471 173.539 563.1 172.498 564.169 170.972C565.237 169.446 565.659 167.559 565.34 165.723ZM537.313 152.891H535.75V154.454C535.75 154.868 535.586 155.265 535.293 155.558C535 155.851 534.602 156.016 534.188 156.016C533.774 156.016 533.376 155.851 533.083 155.558C532.79 155.265 532.625 154.868 532.625 154.454V152.891H531.063C530.649 152.891 530.251 152.726 529.958 152.433C529.665 152.14 529.5 151.743 529.5 151.329C529.5 150.914 529.665 150.517 529.958 150.224C530.251 149.931 530.649 149.766 531.063 149.766H532.625V148.204C532.625 147.789 532.79 147.392 533.083 147.099C533.376 146.806 533.774 146.641 534.188 146.641C534.602 146.641 535 146.806 535.293 147.099C535.586 147.392 535.75 147.789 535.75 148.204V149.766H537.313C537.727 149.766 538.125 149.931 538.418 150.224C538.711 150.517 538.875 150.914 538.875 151.329C538.875 151.743 538.711 152.14 538.418 152.433C538.125 152.726 537.727 152.891 537.313 152.891ZM545.125 151.329C545.125 150.914 545.29 150.517 545.583 150.224C545.876 149.931 546.274 149.766 546.688 149.766H552.938C553.352 149.766 553.75 149.931 554.043 150.224C554.336 150.517 554.5 150.914 554.5 151.329C554.5 151.743 554.336 152.14 554.043 152.433C553.75 152.726 553.352 152.891 552.938 152.891H546.688C546.274 152.891 545.876 152.726 545.583 152.433C545.29 152.14 545.125 151.743 545.125 151.329ZM559.09 170.801C558.478 170.909 557.848 170.869 557.254 170.686C556.66 170.502 556.118 170.181 555.672 169.747L549.598 163.008H550.594C552.588 163.01 554.548 162.504 556.291 161.536C558.034 160.569 559.502 159.173 560.555 157.481L562.254 166.309C562.425 167.324 562.188 168.364 561.596 169.206C561.003 170.047 560.103 170.62 559.09 170.801Z" fill="url(#paint0_linear_801_2780)"/>
<mask id="path-25-inside-1_801_2780" fill="white">
<path fill-rule="evenodd" clip-rule="evenodd" d="M542 247.903C541.004 247.937 540.004 247.954 539 247.954C494.21 247.954 457.418 213.707 453.383 169.97H0V285.97H542V247.903Z"/>
</mask>
<path fill-rule="evenodd" clip-rule="evenodd" d="M542 247.903C541.004 247.937 540.004 247.954 539 247.954C494.21 247.954 457.418 213.707 453.383 169.97H0V285.97H542V247.903Z" fill="white" fill-opacity="0.1"/>
<path d="M542 247.903H544V245.833L541.931 245.904L542 247.903ZM453.383 169.97L455.374 169.786L455.207 167.97H453.383V169.97ZM0 169.97V167.97H-2V169.97H0ZM0 285.97H-2V287.97H0V285.97ZM542 285.97V287.97H544V285.97H542ZM541.931 245.904C540.958 245.937 539.981 245.954 539 245.954V249.954C540.027 249.954 541.05 249.937 542.069 249.902L541.931 245.904ZM539 245.954C495.253 245.954 459.316 212.504 455.374 169.786L451.391 170.153C455.521 214.91 493.167 249.954 539 249.954V245.954ZM0 171.97H453.383V167.97H0V171.97ZM2 285.97V169.97H-2V285.97H2ZM542 283.97H0V287.97H542V283.97ZM540 247.903V285.97H544V247.903H540Z" fill="url(#paint1_linear_801_2780)" mask="url(#path-25-inside-1_801_2780)"/>
<path d="M50.32 241.47V217.23H49.6L45.84 226.11H40.48L46.2 213.47H55.44V241.47H50.32ZM61.7659 241.47V238.11C61.7659 236.163 62.0859 234.55 62.7259 233.27C63.3659 231.963 64.2859 230.896 65.4859 230.07C66.7126 229.216 68.2059 228.523 69.9659 227.99L72.6459 227.15C73.6326 226.83 74.4593 226.443 75.1259 225.99C75.7926 225.51 76.2993 224.936 76.6459 224.27C77.0193 223.603 77.2059 222.843 77.2059 221.99V221.83C77.2059 220.496 76.7526 219.443 75.8459 218.67C74.9393 217.87 73.6993 217.47 72.1259 217.47C70.5793 217.47 69.3259 217.896 68.3659 218.75C67.4326 219.576 66.9659 220.776 66.9659 222.35V223.07H61.8459V222.43C61.8459 220.403 62.2993 218.683 63.2059 217.27C64.1126 215.856 65.3393 214.776 66.8859 214.03C68.4593 213.283 70.2059 212.91 72.1259 212.91C74.0459 212.91 75.7793 213.283 77.3259 214.03C78.8726 214.75 80.0859 215.776 80.9659 217.11C81.8726 218.416 82.3259 219.963 82.3259 221.75V222.15C82.3259 223.936 81.9526 225.456 81.2059 226.71C80.4859 227.936 79.4993 228.95 78.2459 229.75C76.9926 230.523 75.5659 231.163 73.9659 231.67L71.4059 232.47C70.2593 232.816 69.3659 233.203 68.7259 233.63C68.0859 234.03 67.6326 234.483 67.3659 234.99C67.1259 235.47 67.0059 236.056 67.0059 236.75V236.91H82.0859V241.47H61.7659ZM98.7959 242.03C95.4893 242.03 92.8359 241.123 90.8359 239.31C88.8359 237.47 87.8359 234.696 87.8359 230.99V223.95C87.8359 220.35 88.8359 217.616 90.8359 215.75C92.8359 213.856 95.4893 212.91 98.7959 212.91C102.129 212.91 104.783 213.856 106.756 215.75C108.756 217.616 109.756 220.35 109.756 223.95V230.99C109.756 234.696 108.756 237.47 106.756 239.31C104.783 241.123 102.129 242.03 98.7959 242.03ZM98.7959 237.47C100.796 237.47 102.263 236.923 103.196 235.83C104.156 234.736 104.636 233.176 104.636 231.15V223.71C104.636 221.656 104.103 220.11 103.036 219.07C101.996 218.003 100.583 217.47 98.7959 217.47C96.9559 217.47 95.5159 218.016 94.4759 219.11C93.4626 220.203 92.9559 221.736 92.9559 223.71V231.15C92.9559 233.256 93.4359 234.843 94.3959 235.91C95.3826 236.95 96.8493 237.47 98.7959 237.47ZM126.733 242.03C123.427 242.03 120.773 241.123 118.773 239.31C116.773 237.47 115.773 234.696 115.773 230.99V223.95C115.773 220.35 116.773 217.616 118.773 215.75C120.773 213.856 123.427 212.91 126.733 212.91C130.067 212.91 132.72 213.856 134.693 215.75C136.693 217.616 137.693 220.35 137.693 223.95V230.99C137.693 234.696 136.693 237.47 134.693 239.31C132.72 241.123 130.067 242.03 126.733 242.03ZM126.733 237.47C128.733 237.47 130.2 236.923 131.133 235.83C132.093 234.736 132.573 233.176 132.573 231.15V223.71C132.573 221.656 132.04 220.11 130.973 219.07C129.933 218.003 128.52 217.47 126.733 217.47C124.893 217.47 123.453 218.016 122.413 219.11C121.4 220.203 120.893 221.736 120.893 223.71V231.15C120.893 233.256 121.373 234.843 122.333 235.91C123.32 236.95 124.787 237.47 126.733 237.47ZM151.751 235.83V229.75H145.751V225.19H151.751V219.11H156.471V225.19H162.471V229.75H156.471V235.83H151.751Z" fill="white"/>
<path d="M198.704 222.186C197.756 222.186 196.886 222.018 196.094 221.682C195.302 221.334 194.612 220.854 194.024 220.242C193.448 219.618 192.998 218.886 192.674 218.046C192.35 217.206 192.188 216.282 192.188 215.274C192.188 214.266 192.35 213.342 192.674 212.502C192.998 211.662 193.448 210.93 194.024 210.306C194.612 209.682 195.302 209.202 196.094 208.866C196.886 208.518 197.756 208.344 198.704 208.344C199.616 208.344 200.432 208.506 201.152 208.83C201.884 209.154 202.496 209.574 202.988 210.09C203.492 210.594 203.852 211.128 204.068 211.692L202.772 212.322C202.436 211.506 201.92 210.864 201.224 210.396C200.528 209.928 199.688 209.694 198.704 209.694C197.72 209.694 196.844 209.928 196.076 210.396C195.308 210.864 194.708 211.518 194.276 212.358C193.844 213.186 193.628 214.158 193.628 215.274C193.628 216.378 193.844 217.35 194.276 218.19C194.708 219.03 195.308 219.684 196.076 220.152C196.844 220.608 197.72 220.836 198.704 220.836C199.58 220.836 200.366 220.644 201.062 220.26C201.77 219.876 202.328 219.354 202.736 218.694C203.144 218.022 203.348 217.254 203.348 216.39V215.652L203.996 216.3H198.704V215.04H204.788V216.156C204.788 217.032 204.632 217.842 204.32 218.586C204.008 219.318 203.576 219.954 203.024 220.494C202.472 221.034 201.824 221.454 201.08 221.754C200.348 222.042 199.556 222.186 198.704 222.186ZM210.139 222.186C209.527 222.186 208.981 222.072 208.501 221.844C208.021 221.604 207.643 221.28 207.367 220.872C207.091 220.464 206.953 219.996 206.953 219.468C206.953 218.964 207.061 218.508 207.277 218.1C207.493 217.68 207.829 217.326 208.285 217.038C208.741 216.75 209.323 216.546 210.031 216.426L213.811 215.796V217.02L210.355 217.596C209.659 217.716 209.155 217.938 208.843 218.262C208.543 218.586 208.393 218.97 208.393 219.414C208.393 219.846 208.561 220.212 208.897 220.512C209.245 220.812 209.689 220.962 210.229 220.962C210.889 220.962 211.465 220.824 211.957 220.548C212.449 220.26 212.833 219.876 213.109 219.396C213.385 218.916 213.523 218.382 213.523 217.794V215.346C213.523 214.77 213.313 214.302 212.893 213.942C212.473 213.582 211.927 213.402 211.255 213.402C210.667 213.402 210.151 213.552 209.707 213.852C209.263 214.14 208.933 214.518 208.717 214.986L207.493 214.32C207.673 213.912 207.955 213.54 208.339 213.204C208.735 212.868 209.185 212.604 209.689 212.412C210.193 212.208 210.715 212.106 211.255 212.106C211.963 212.106 212.587 212.244 213.127 212.52C213.679 212.796 214.105 213.18 214.405 213.672C214.717 214.152 214.873 214.71 214.873 215.346V221.97H213.523V220.044L213.721 220.242C213.553 220.602 213.289 220.932 212.929 221.232C212.581 221.52 212.167 221.754 211.687 221.934C211.219 222.102 210.703 222.186 210.139 222.186ZM217.83 221.97V212.322H219.18V214.158L218.964 213.888C219.228 213.324 219.618 212.886 220.134 212.574C220.662 212.262 221.238 212.106 221.862 212.106C222.606 212.106 223.278 212.316 223.878 212.736C224.478 213.156 224.904 213.702 225.156 214.374L224.778 214.392C225.018 213.648 225.432 213.084 226.02 212.7C226.62 212.304 227.28 212.106 228 212.106C228.648 212.106 229.242 212.262 229.782 212.574C230.334 212.886 230.772 213.318 231.096 213.87C231.432 214.41 231.6 215.022 231.6 215.706V221.97H230.25V216.228C230.25 215.64 230.142 215.142 229.926 214.734C229.722 214.326 229.44 214.014 229.08 213.798C228.72 213.57 228.306 213.456 227.838 213.456C227.382 213.456 226.968 213.57 226.596 213.798C226.224 214.014 225.93 214.332 225.714 214.752C225.498 215.16 225.39 215.652 225.39 216.228V221.97H224.04V216.228C224.04 215.64 223.932 215.142 223.716 214.734C223.512 214.326 223.23 214.014 222.87 213.798C222.51 213.57 222.096 213.456 221.628 213.456C221.16 213.456 220.74 213.57 220.368 213.798C220.008 214.014 219.72 214.332 219.504 214.752C219.288 215.16 219.18 215.652 219.18 216.228V221.97H217.83ZM238.75 222.186C237.85 222.186 237.034 221.97 236.302 221.538C235.582 221.094 235.012 220.488 234.592 219.72C234.172 218.952 233.962 218.082 233.962 217.11C233.962 216.138 234.166 215.28 234.574 214.536C234.982 213.78 235.534 213.186 236.23 212.754C236.938 212.322 237.73 212.106 238.606 212.106C239.302 212.106 239.92 212.238 240.46 212.502C241.012 212.754 241.48 213.102 241.864 213.546C242.248 213.978 242.542 214.47 242.746 215.022C242.95 215.562 243.052 216.12 243.052 216.696C243.052 216.816 243.046 216.954 243.034 217.11C243.022 217.254 243.004 217.404 242.98 217.56H234.826V216.3H242.206L241.558 216.84C241.666 216.18 241.588 215.592 241.324 215.076C241.072 214.548 240.706 214.134 240.226 213.834C239.746 213.522 239.206 213.366 238.606 213.366C238.006 213.366 237.448 213.522 236.932 213.834C236.428 214.146 236.032 214.584 235.744 215.148C235.456 215.7 235.342 216.36 235.402 217.128C235.342 217.896 235.462 218.568 235.762 219.144C236.074 219.708 236.494 220.146 237.022 220.458C237.562 220.77 238.138 220.926 238.75 220.926C239.458 220.926 240.052 220.758 240.532 220.422C241.012 220.086 241.402 219.666 241.702 219.162L242.854 219.774C242.662 220.206 242.368 220.608 241.972 220.98C241.576 221.34 241.102 221.634 240.55 221.862C240.01 222.078 239.41 222.186 238.75 222.186ZM248.96 222.186C248.036 222.186 247.226 221.952 246.53 221.484C245.834 221.016 245.33 220.38 245.018 219.576L246.152 219.036C246.428 219.624 246.812 220.092 247.304 220.44C247.808 220.788 248.36 220.962 248.96 220.962C249.536 220.962 250.022 220.824 250.418 220.548C250.814 220.26 251.012 219.888 251.012 219.432C251.012 219.096 250.916 218.832 250.724 218.64C250.532 218.436 250.31 218.28 250.058 218.172C249.806 218.064 249.584 217.986 249.392 217.938L248.006 217.542C247.118 217.29 246.476 216.936 246.08 216.48C245.684 216.024 245.486 215.496 245.486 214.896C245.486 214.332 245.63 213.84 245.918 213.42C246.206 213 246.596 212.676 247.088 212.448C247.58 212.22 248.126 212.106 248.726 212.106C249.542 212.106 250.28 212.322 250.94 212.754C251.612 213.174 252.086 213.762 252.362 214.518L251.21 215.058C250.97 214.518 250.622 214.098 250.166 213.798C249.722 213.486 249.224 213.33 248.672 213.33C248.132 213.33 247.7 213.468 247.376 213.744C247.052 214.02 246.89 214.368 246.89 214.788C246.89 215.112 246.974 215.37 247.142 215.562C247.31 215.754 247.502 215.898 247.718 215.994C247.946 216.09 248.144 216.162 248.312 216.21L249.914 216.678C250.694 216.906 251.3 217.26 251.732 217.74C252.176 218.22 252.398 218.784 252.398 219.432C252.398 219.96 252.248 220.434 251.948 220.854C251.66 221.274 251.258 221.604 250.742 221.844C250.226 222.072 249.632 222.186 248.96 222.186ZM258.387 225.93C258.195 225.93 257.997 225.912 257.793 225.876C257.601 225.852 257.409 225.804 257.217 225.732V224.472C257.337 224.484 257.487 224.502 257.667 224.526C257.859 224.562 258.051 224.58 258.243 224.58C258.831 224.58 259.281 224.454 259.593 224.202C259.905 223.962 260.211 223.494 260.511 222.798L261.123 221.358L261.087 222.546L257.001 212.322H258.459L261.807 220.764H261.429L264.759 212.322H266.253L261.843 223.194C261.651 223.662 261.405 224.106 261.105 224.526C260.817 224.946 260.451 225.282 260.007 225.534C259.563 225.798 259.023 225.93 258.387 225.93ZM272.361 222.186C271.449 222.186 270.621 221.97 269.877 221.538C269.133 221.094 268.539 220.494 268.095 219.738C267.663 218.97 267.447 218.1 267.447 217.128C267.447 216.168 267.663 215.31 268.095 214.554C268.527 213.798 269.109 213.204 269.841 212.772C270.585 212.328 271.425 212.106 272.361 212.106C273.297 212.106 274.131 212.322 274.863 212.754C275.607 213.186 276.189 213.78 276.609 214.536C277.041 215.292 277.257 216.156 277.257 217.128C277.257 218.112 277.035 218.988 276.591 219.756C276.147 220.512 275.553 221.106 274.809 221.538C274.077 221.97 273.261 222.186 272.361 222.186ZM272.361 220.836C273.009 220.836 273.591 220.674 274.107 220.35C274.635 220.026 275.049 219.582 275.349 219.018C275.661 218.454 275.817 217.824 275.817 217.128C275.817 216.432 275.661 215.808 275.349 215.256C275.049 214.704 274.635 214.266 274.107 213.942C273.591 213.618 273.009 213.456 272.361 213.456C271.713 213.456 271.125 213.618 270.597 213.942C270.081 214.266 269.667 214.704 269.355 215.256C269.043 215.808 268.887 216.432 268.887 217.128C268.887 217.824 269.043 218.454 269.355 219.018C269.667 219.582 270.081 220.026 270.597 220.35C271.125 220.674 271.713 220.836 272.361 220.836ZM283.238 222.186C282.566 222.186 281.954 222.03 281.402 221.718C280.85 221.394 280.412 220.95 280.088 220.386C279.776 219.81 279.62 219.15 279.62 218.406V212.322H280.97V218.244C280.97 218.76 281.072 219.216 281.276 219.612C281.492 219.996 281.786 220.296 282.158 220.512C282.542 220.728 282.98 220.836 283.472 220.836C283.964 220.836 284.402 220.728 284.786 220.512C285.17 220.284 285.47 219.966 285.686 219.558C285.902 219.138 286.01 218.64 286.01 218.064V212.322H287.36V221.97H286.01V220.098L286.316 220.17C286.088 220.794 285.698 221.286 285.146 221.646C284.594 222.006 283.958 222.186 283.238 222.186ZM297.965 222.186C297.017 222.186 296.183 221.964 295.463 221.52C294.743 221.076 294.179 220.476 293.771 219.72C293.363 218.952 293.159 218.088 293.159 217.128C293.159 216.168 293.363 215.31 293.771 214.554C294.179 213.798 294.743 213.204 295.463 212.772C296.183 212.328 297.017 212.106 297.965 212.106C298.565 212.106 299.129 212.214 299.657 212.43C300.185 212.646 300.653 212.94 301.061 213.312C301.469 213.672 301.775 214.092 301.979 214.572L300.755 215.202C300.515 214.686 300.149 214.266 299.657 213.942C299.165 213.618 298.601 213.456 297.965 213.456C297.329 213.456 296.753 213.618 296.237 213.942C295.733 214.254 295.331 214.692 295.031 215.256C294.743 215.808 294.599 216.438 294.599 217.146C294.599 217.842 294.743 218.472 295.031 219.036C295.331 219.588 295.733 220.026 296.237 220.35C296.753 220.674 297.329 220.836 297.965 220.836C298.601 220.836 299.159 220.674 299.639 220.35C300.131 220.026 300.503 219.594 300.755 219.054L301.979 219.72C301.775 220.188 301.469 220.608 301.061 220.98C300.653 221.352 300.185 221.646 299.657 221.862C299.129 222.078 298.565 222.186 297.965 222.186ZM307.142 222.186C306.53 222.186 305.984 222.072 305.504 221.844C305.024 221.604 304.646 221.28 304.37 220.872C304.094 220.464 303.956 219.996 303.956 219.468C303.956 218.964 304.064 218.508 304.28 218.1C304.496 217.68 304.832 217.326 305.288 217.038C305.744 216.75 306.326 216.546 307.034 216.426L310.814 215.796V217.02L307.358 217.596C306.662 217.716 306.158 217.938 305.846 218.262C305.546 218.586 305.396 218.97 305.396 219.414C305.396 219.846 305.564 220.212 305.9 220.512C306.248 220.812 306.692 220.962 307.232 220.962C307.892 220.962 308.468 220.824 308.96 220.548C309.452 220.26 309.836 219.876 310.112 219.396C310.388 218.916 310.526 218.382 310.526 217.794V215.346C310.526 214.77 310.316 214.302 309.896 213.942C309.476 213.582 308.93 213.402 308.258 213.402C307.67 213.402 307.154 213.552 306.71 213.852C306.266 214.14 305.936 214.518 305.72 214.986L304.496 214.32C304.676 213.912 304.958 213.54 305.342 213.204C305.738 212.868 306.188 212.604 306.692 212.412C307.196 212.208 307.718 212.106 308.258 212.106C308.966 212.106 309.59 212.244 310.13 212.52C310.682 212.796 311.108 213.18 311.408 213.672C311.72 214.152 311.876 214.71 311.876 215.346V221.97H310.526V220.044L310.724 220.242C310.556 220.602 310.292 220.932 309.932 221.232C309.584 221.52 309.17 221.754 308.69 221.934C308.222 222.102 307.706 222.186 307.142 222.186ZM314.833 221.97V212.322H316.183V214.194L315.877 214.122C316.117 213.498 316.507 213.006 317.047 212.646C317.599 212.286 318.235 212.106 318.955 212.106C319.639 212.106 320.251 212.262 320.791 212.574C321.343 212.886 321.775 213.318 322.087 213.87C322.411 214.41 322.573 215.022 322.573 215.706V221.97H321.223V216.228C321.223 215.64 321.115 215.142 320.899 214.734C320.695 214.326 320.401 214.014 320.017 213.798C319.645 213.57 319.213 213.456 318.721 213.456C318.229 213.456 317.791 213.57 317.407 213.798C317.023 214.014 316.723 214.332 316.507 214.752C316.291 215.16 316.183 215.652 316.183 216.228V221.97H314.833ZM328.57 225.57V212.322H329.92V214.482L329.704 214.104C330.088 213.492 330.598 213.006 331.234 212.646C331.882 212.286 332.62 212.106 333.448 212.106C334.36 212.106 335.17 212.328 335.878 212.772C336.598 213.204 337.162 213.798 337.57 214.554C337.99 215.31 338.2 216.174 338.2 217.146C338.2 218.106 337.99 218.97 337.57 219.738C337.162 220.494 336.598 221.094 335.878 221.538C335.17 221.97 334.36 222.186 333.448 222.186C332.62 222.186 331.87 222 331.198 221.628C330.538 221.244 330.04 220.704 329.704 220.008L329.92 219.81V225.57H328.57ZM333.376 220.836C334.024 220.836 334.6 220.674 335.104 220.35C335.62 220.026 336.022 219.588 336.31 219.036C336.61 218.472 336.76 217.842 336.76 217.146C336.76 216.438 336.61 215.808 336.31 215.256C336.022 214.704 335.62 214.266 335.104 213.942C334.6 213.618 334.024 213.456 333.376 213.456C332.728 213.456 332.14 213.618 331.612 213.942C331.096 214.266 330.682 214.71 330.37 215.274C330.07 215.826 329.92 216.45 329.92 217.146C329.92 217.842 330.07 218.472 330.37 219.036C330.682 219.588 331.096 220.026 331.612 220.35C332.14 220.674 332.728 220.836 333.376 220.836ZM340.756 221.97V208.344H342.106V221.97H340.756ZM347.839 222.186C347.227 222.186 346.681 222.072 346.201 221.844C345.721 221.604 345.343 221.28 345.067 220.872C344.791 220.464 344.653 219.996 344.653 219.468C344.653 218.964 344.761 218.508 344.977 218.1C345.193 217.68 345.529 217.326 345.985 217.038C346.441 216.75 347.023 216.546 347.731 216.426L351.511 215.796V217.02L348.055 217.596C347.359 217.716 346.855 217.938 346.543 218.262C346.243 218.586 346.093 218.97 346.093 219.414C346.093 219.846 346.261 220.212 346.597 220.512C346.945 220.812 347.389 220.962 347.929 220.962C348.589 220.962 349.165 220.824 349.657 220.548C350.149 220.26 350.533 219.876 350.809 219.396C351.085 218.916 351.223 218.382 351.223 217.794V215.346C351.223 214.77 351.013 214.302 350.593 213.942C350.173 213.582 349.627 213.402 348.955 213.402C348.367 213.402 347.851 213.552 347.407 213.852C346.963 214.14 346.633 214.518 346.417 214.986L345.193 214.32C345.373 213.912 345.655 213.54 346.039 213.204C346.435 212.868 346.885 212.604 347.389 212.412C347.893 212.208 348.415 212.106 348.955 212.106C349.663 212.106 350.287 212.244 350.827 212.52C351.379 212.796 351.805 213.18 352.105 213.672C352.417 214.152 352.573 214.71 352.573 215.346V221.97H351.223V220.044L351.421 220.242C351.253 220.602 350.989 220.932 350.629 221.232C350.281 221.52 349.867 221.754 349.387 221.934C348.919 222.102 348.403 222.186 347.839 222.186ZM355.728 225.93C355.536 225.93 355.338 225.912 355.134 225.876C354.942 225.852 354.75 225.804 354.558 225.732V224.472C354.678 224.484 354.828 224.502 355.008 224.526C355.2 224.562 355.392 224.58 355.584 224.58C356.172 224.58 356.622 224.454 356.934 224.202C357.246 223.962 357.552 223.494 357.852 222.798L358.464 221.358L358.428 222.546L354.342 212.322H355.8L359.148 220.764H358.77L362.1 212.322H363.594L359.184 223.194C358.992 223.662 358.746 224.106 358.446 224.526C358.158 224.946 357.792 225.282 357.348 225.534C356.904 225.798 356.364 225.93 355.728 225.93ZM370.723 221.97L367.411 212.322H368.941L371.677 220.764H371.137L373.711 212.322H375.061L377.635 220.764H377.095L379.849 212.322H381.361L378.049 221.97H376.699L374.197 213.708H374.575L372.073 221.97H370.723ZM383.123 221.97V212.322H384.473V221.97H383.123ZM383.123 210.54V208.56H384.473V210.54H383.123ZM391.106 222.078C390.242 222.078 389.576 221.826 389.108 221.322C388.64 220.818 388.406 220.098 388.406 219.162V213.672H386.624V212.322H387.074C387.482 212.322 387.806 212.19 388.046 211.926C388.286 211.65 388.406 211.308 388.406 210.9V210.09H389.756V212.322H391.88V213.672H389.756V219.162C389.756 219.486 389.804 219.774 389.9 220.026C389.996 220.266 390.158 220.458 390.386 220.602C390.626 220.746 390.944 220.818 391.34 220.818C391.436 220.818 391.55 220.812 391.682 220.8C391.814 220.788 391.928 220.776 392.024 220.764V221.97C391.88 222.006 391.718 222.03 391.538 222.042C391.358 222.066 391.214 222.078 391.106 222.078ZM394.575 221.97V208.344H395.925V214.194L395.619 214.122C395.859 213.498 396.249 213.006 396.789 212.646C397.341 212.286 397.977 212.106 398.697 212.106C399.381 212.106 399.993 212.262 400.533 212.574C401.085 212.886 401.517 213.318 401.829 213.87C402.153 214.41 402.315 215.022 402.315 215.706V221.97H400.965V216.228C400.965 215.64 400.857 215.142 400.641 214.734C400.425 214.326 400.125 214.014 399.741 213.798C399.369 213.57 398.943 213.456 398.463 213.456C397.983 213.456 397.551 213.57 397.167 213.798C396.783 214.014 396.477 214.332 396.249 214.752C396.033 215.16 395.925 215.652 395.925 216.228V221.97H394.575ZM193.376 247.97V239.672H191.45V238.322H193.376V237.458C193.376 236.786 193.526 236.222 193.826 235.766C194.126 235.298 194.522 234.944 195.014 234.704C195.506 234.464 196.034 234.344 196.598 234.344C196.718 234.344 196.856 234.356 197.012 234.38C197.168 234.392 197.294 234.41 197.39 234.434V235.658C197.306 235.634 197.192 235.622 197.048 235.622C196.904 235.61 196.802 235.604 196.742 235.604C196.166 235.604 195.686 235.742 195.302 236.018C194.918 236.294 194.726 236.774 194.726 237.458V238.322H197.084V239.672H194.726V247.97H193.376ZM199.457 247.97V238.322H200.807V239.906L200.627 239.672C200.855 239.216 201.197 238.856 201.653 238.592C202.121 238.328 202.685 238.196 203.345 238.196H203.957V239.546H203.111C202.415 239.546 201.857 239.762 201.437 240.194C201.017 240.626 200.807 241.238 200.807 242.03V247.97H199.457ZM205.719 247.97V238.322H207.069V247.97H205.719ZM205.719 236.54V234.56H207.069V236.54H205.719ZM214.404 248.186C213.504 248.186 212.688 247.97 211.956 247.538C211.236 247.094 210.666 246.488 210.246 245.72C209.826 244.952 209.616 244.082 209.616 243.11C209.616 242.138 209.82 241.28 210.228 240.536C210.636 239.78 211.188 239.186 211.884 238.754C212.592 238.322 213.384 238.106 214.26 238.106C214.956 238.106 215.574 238.238 216.114 238.502C216.666 238.754 217.134 239.102 217.518 239.546C217.902 239.978 218.196 240.47 218.4 241.022C218.604 241.562 218.706 242.12 218.706 242.696C218.706 242.816 218.7 242.954 218.688 243.11C218.676 243.254 218.658 243.404 218.634 243.56H210.48V242.3H217.86L217.212 242.84C217.32 242.18 217.242 241.592 216.978 241.076C216.726 240.548 216.36 240.134 215.88 239.834C215.4 239.522 214.86 239.366 214.26 239.366C213.66 239.366 213.102 239.522 212.586 239.834C212.082 240.146 211.686 240.584 211.398 241.148C211.11 241.7 210.996 242.36 211.056 243.128C210.996 243.896 211.116 244.568 211.416 245.144C211.728 245.708 212.148 246.146 212.676 246.458C213.216 246.77 213.792 246.926 214.404 246.926C215.112 246.926 215.706 246.758 216.186 246.422C216.666 246.086 217.056 245.666 217.356 245.162L218.508 245.774C218.316 246.206 218.022 246.608 217.626 246.98C217.23 247.34 216.756 247.634 216.204 247.862C215.664 248.078 215.064 248.186 214.404 248.186ZM221.266 247.97V238.322H222.616V240.194L222.31 240.122C222.55 239.498 222.94 239.006 223.48 238.646C224.032 238.286 224.668 238.106 225.388 238.106C226.072 238.106 226.684 238.262 227.224 238.574C227.776 238.886 228.208 239.318 228.52 239.87C228.844 240.41 229.006 241.022 229.006 241.706V247.97H227.656V242.228C227.656 241.64 227.548 241.142 227.332 240.734C227.128 240.326 226.834 240.014 226.45 239.798C226.078 239.57 225.646 239.456 225.154 239.456C224.662 239.456 224.224 239.57 223.84 239.798C223.456 240.014 223.156 240.332 222.94 240.752C222.724 241.16 222.616 241.652 222.616 242.228V247.97H221.266ZM236.121 248.186C235.221 248.186 234.411 247.97 233.691 247.538C232.971 247.094 232.401 246.494 231.981 245.738C231.573 244.97 231.369 244.106 231.369 243.146C231.369 242.174 231.573 241.31 231.981 240.554C232.401 239.798 232.965 239.204 233.673 238.772C234.393 238.328 235.209 238.106 236.121 238.106C236.949 238.106 237.687 238.286 238.335 238.646C238.983 239.006 239.493 239.492 239.865 240.104L239.649 240.482V234.344H240.999V247.97H239.649V245.81L239.865 246.008C239.529 246.704 239.025 247.244 238.353 247.628C237.693 248 236.949 248.186 236.121 248.186ZM236.193 246.836C236.841 246.836 237.423 246.674 237.939 246.35C238.467 246.026 238.881 245.588 239.181 245.036C239.493 244.472 239.649 243.842 239.649 243.146C239.649 242.45 239.493 241.826 239.181 241.274C238.881 240.71 238.467 240.266 237.939 239.942C237.423 239.618 236.841 239.456 236.193 239.456C235.557 239.456 234.981 239.618 234.465 239.942C233.949 240.266 233.541 240.704 233.241 241.256C232.953 241.808 232.809 242.438 232.809 243.146C232.809 243.842 232.953 244.472 233.241 245.036C233.541 245.588 233.943 246.026 234.447 246.35C234.963 246.674 235.545 246.836 236.193 246.836ZM247.298 248.186C246.374 248.186 245.564 247.952 244.868 247.484C244.172 247.016 243.668 246.38 243.356 245.576L244.49 245.036C244.766 245.624 245.15 246.092 245.642 246.44C246.146 246.788 246.698 246.962 247.298 246.962C247.874 246.962 248.36 246.824 248.756 246.548C249.152 246.26 249.35 245.888 249.35 245.432C249.35 245.096 249.254 244.832 249.062 244.64C248.87 244.436 248.648 244.28 248.396 244.172C248.144 244.064 247.922 243.986 247.73 243.938L246.344 243.542C245.456 243.29 244.814 242.936 244.418 242.48C244.022 242.024 243.824 241.496 243.824 240.896C243.824 240.332 243.968 239.84 244.256 239.42C244.544 239 244.934 238.676 245.426 238.448C245.918 238.22 246.464 238.106 247.064 238.106C247.88 238.106 248.618 238.322 249.278 238.754C249.95 239.174 250.424 239.762 250.7 240.518L249.548 241.058C249.308 240.518 248.96 240.098 248.504 239.798C248.06 239.486 247.562 239.33 247.01 239.33C246.47 239.33 246.038 239.468 245.714 239.744C245.39 240.02 245.228 240.368 245.228 240.788C245.228 241.112 245.312 241.37 245.48 241.562C245.648 241.754 245.84 241.898 246.056 241.994C246.284 242.09 246.482 242.162 246.65 242.21L248.252 242.678C249.032 242.906 249.638 243.26 250.07 243.74C250.514 244.22 250.736 244.784 250.736 245.432C250.736 245.96 250.586 246.434 250.286 246.854C249.998 247.274 249.596 247.604 249.08 247.844C248.564 248.072 247.97 248.186 247.298 248.186Z" fill="white" fill-opacity="0.8"/>
<defs>
<linearGradient id="paint0_linear_801_2780" x1="518.57" y1="139.551" x2="570.151" y2="164.09" gradientUnits="userSpaceOnUse">
<stop stop-color="#FF4B9A"/>
<stop offset="0.465827" stop-color="#AD61FF"/>
<stop offset="0.982618" stop-color="#5CDFCB"/>
</linearGradient>
<linearGradient id="paint1_linear_801_2780" x1="0" y1="169.97" x2="199.499" y2="495.725" gradientUnits="userSpaceOnUse">
<stop stop-color="#FF4B9A"/>
<stop offset="0.465827" stop-color="#AD61FF"/>
<stop offset="0.982618" stop-color="#5CDFCB"/>
</linearGradient>
</defs>
</svg>
