<svg width="170" height="16" viewBox="0 0 170 16" fill="none" xmlns="http://www.w3.org/2000/svg">
<path d="M0.54 15.5V0.599999H5.96C6.96 0.599999 7.84 0.786666 8.6 1.16C9.37333 1.52 9.97333 2.05333 10.4 2.76C10.8267 3.45333 11.04 4.28667 11.04 5.26C11.04 6.22 10.82 7.04667 10.38 7.74C9.95333 8.43333 9.36 8.96667 8.6 9.34C7.84 9.71333 6.96 9.9 5.96 9.9H2.9V15.5H0.54ZM2.9 7.8H6.02C6.55333 7.8 7.02 7.69333 7.42 7.48C7.82 7.26667 8.13333 6.97333 8.36 6.6C8.58667 6.21333 8.7 5.76 8.7 5.24C8.7 4.72 8.58667 4.27333 8.36 3.9C8.13333 3.51333 7.82 3.22 7.42 3.02C7.02 2.80667 6.55333 2.7 6.02 2.7H2.9V7.8ZM18.4697 15.5V0.599999H20.8297V13.4H27.2697V15.5H18.4697ZM32.9309 15.5L38.1709 0.599999H41.0909L46.3309 15.5H43.8109L42.6709 12.16H36.6109L35.4509 15.5H32.9309ZM37.2909 10.06H41.9509L39.3109 2.26H39.9709L37.2909 10.06ZM54.7425 15.5V2.7H50.7825V0.599999H60.9825V2.7H57.0825V15.5H54.7425ZM67.747 15.5V0.599999H77.447V2.7H70.107V7.18H76.647V9.28H70.107V15.5H67.747ZM91.4714 15.74C90.3914 15.74 89.3847 15.5467 88.4514 15.16C87.5314 14.7733 86.7181 14.2333 86.0114 13.54C85.3181 12.8467 84.7714 12.0333 84.3714 11.1C83.9847 10.1667 83.7914 9.14667 83.7914 8.04C83.7914 6.93333 83.9847 5.91333 84.3714 4.98C84.7714 4.03333 85.3181 3.22 86.0114 2.54C86.7047 1.84667 87.5181 1.31333 88.4514 0.939999C89.3847 0.553333 90.3914 0.359999 91.4714 0.359999C92.5647 0.359999 93.5714 0.553333 94.4914 0.939999C95.4247 1.31333 96.2381 1.84667 96.9314 2.54C97.6381 3.23333 98.1847 4.04667 98.5714 4.98C98.9581 5.91333 99.1514 6.93333 99.1514 8.04C99.1514 9.14667 98.9514 10.1667 98.5514 11.1C98.1647 12.0333 97.6247 12.8467 96.9314 13.54C96.2381 14.2333 95.4247 14.7733 94.4914 15.16C93.5581 15.5467 92.5514 15.74 91.4714 15.74ZM91.4714 13.58C92.2447 13.58 92.9514 13.44 93.5914 13.16C94.2447 12.88 94.8114 12.4933 95.2914 12C95.7714 11.4933 96.1447 10.9067 96.4114 10.24C96.6781 9.56 96.8114 8.82667 96.8114 8.04C96.8114 7.25333 96.6781 6.52667 96.4114 5.86C96.1447 5.19333 95.7714 4.60667 95.2914 4.1C94.8114 3.59333 94.2447 3.2 93.5914 2.92C92.9514 2.64 92.2447 2.5 91.4714 2.5C90.6981 2.5 89.9847 2.64 89.3314 2.92C88.6914 3.2 88.1314 3.59333 87.6514 4.1C87.1714 4.60667 86.7981 5.19333 86.5314 5.86C86.2781 6.52667 86.1514 7.25333 86.1514 8.04C86.1514 8.82667 86.2781 9.56 86.5314 10.24C86.7981 10.9067 87.1714 11.4933 87.6514 12C88.1314 12.4933 88.6981 12.88 89.3514 13.16C90.0047 13.44 90.7114 13.58 91.4714 13.58ZM106.79 15.5V0.599999H112.21C113.21 0.599999 114.09 0.786666 114.85 1.16C115.61 1.52 116.203 2.05333 116.63 2.76C117.07 3.45333 117.29 4.28667 117.29 5.26C117.29 6.28667 117.03 7.16667 116.51 7.9C116.003 8.63333 115.317 9.16667 114.45 9.5L117.89 15.5H115.21L111.55 9L113.09 9.9H109.15V15.5H106.79ZM109.15 7.8H112.25C112.797 7.8 113.27 7.69333 113.67 7.48C114.07 7.26667 114.377 6.97333 114.59 6.6C114.817 6.21333 114.93 5.76 114.93 5.24C114.93 4.72 114.817 4.27333 114.59 3.9C114.377 3.51333 114.07 3.22 113.67 3.02C113.27 2.80667 112.797 2.7 112.25 2.7H109.15V7.8ZM124.876 15.5V0.599999H127.076L132.676 8.36H131.576L137.076 0.599999H139.276V15.5H136.936V3.38L137.816 3.62L132.196 11.3H131.956L126.456 3.62L127.236 3.38V15.5H124.876ZM162.833 15.74C161.779 15.74 160.799 15.5467 159.893 15.16C158.999 14.7733 158.213 14.24 157.533 13.56C156.866 12.8667 156.346 12.0533 155.973 11.12C155.599 10.1867 155.413 9.16 155.413 8.04C155.413 6.93333 155.593 5.91333 155.953 4.98C156.326 4.03333 156.846 3.22 157.513 2.54C158.179 1.84667 158.959 1.31333 159.853 0.939999C160.746 0.553333 161.726 0.359999 162.793 0.359999C163.846 0.359999 164.786 0.539999 165.612 0.9C166.453 1.26 167.159 1.73333 167.733 2.32C168.306 2.89333 168.719 3.52 168.973 4.2L166.873 5.22C166.566 4.40667 166.059 3.75333 165.353 3.26C164.646 2.75333 163.793 2.5 162.793 2.5C161.806 2.5 160.933 2.73333 160.173 3.2C159.413 3.66667 158.819 4.31333 158.393 5.14C157.979 5.96667 157.773 6.93333 157.773 8.04C157.773 9.14667 157.986 10.12 158.413 10.96C158.853 11.7867 159.453 12.4333 160.213 12.9C160.973 13.3533 161.846 13.58 162.833 13.58C163.659 13.58 164.413 13.4133 165.093 13.08C165.786 12.7333 166.339 12.2533 166.753 11.64C167.166 11.0133 167.373 10.2867 167.373 9.46V8.44L168.433 9.4H162.793V7.4H169.713V8.8C169.713 9.89333 169.526 10.8733 169.153 11.74C168.779 12.5933 168.273 13.32 167.633 13.92C166.993 14.52 166.259 14.9733 165.433 15.28C164.606 15.5867 163.739 15.74 162.833 15.74Z" fill="white"/>
</svg>
