<svg width="172" height="25" viewBox="0 0 172 25" fill="none" xmlns="http://www.w3.org/2000/svg">
<path d="M1.54 21V6.1H6.96C7.96 6.1 8.84 6.28667 9.6 6.66C10.3733 7.02 10.9733 7.55333 11.4 8.26C11.8267 8.95333 12.04 9.78667 12.04 10.76C12.04 11.72 11.82 12.5467 11.38 13.24C10.9533 13.9333 10.36 14.4667 9.6 14.84C8.84 15.2133 7.96 15.4 6.96 15.4H3.9V21H1.54ZM3.9 13.3H7.02C7.55333 13.3 8.02 13.1933 8.42 12.98C8.82 12.7667 9.13333 12.4733 9.36 12.1C9.58667 11.7133 9.7 11.26 9.7 10.74C9.7 10.22 9.58667 9.77333 9.36 9.4C9.13333 9.01333 8.82 8.72 8.42 8.52C8.02 8.30667 7.55333 8.2 7.02 8.2H3.9V13.3ZM19.4697 21V6.1H21.8297V18.9H28.2697V21H19.4697ZM33.9309 21L39.1709 6.1H42.0909L47.3309 21H44.8109L43.6709 17.66H37.6109L36.4509 21H33.9309ZM38.2909 15.56H42.9509L40.3109 7.76H40.9709L38.2909 15.56ZM55.7425 21V8.2H51.7825V6.1H61.9825V8.2H58.0825V21H55.7425ZM68.747 21V6.1H78.447V8.2H71.107V12.68H77.647V14.78H71.107V21H68.747ZM92.4714 21.24C91.3914 21.24 90.3847 21.0467 89.4514 20.66C88.5314 20.2733 87.7181 19.7333 87.0114 19.04C86.3181 18.3467 85.7714 17.5333 85.3714 16.6C84.9847 15.6667 84.7914 14.6467 84.7914 13.54C84.7914 12.4333 84.9847 11.4133 85.3714 10.48C85.7714 9.53333 86.3181 8.72 87.0114 8.04C87.7047 7.34667 88.5181 6.81333 89.4514 6.44C90.3847 6.05333 91.3914 5.86 92.4714 5.86C93.5647 5.86 94.5714 6.05333 95.4914 6.44C96.4247 6.81333 97.2381 7.34667 97.9314 8.04C98.6381 8.73333 99.1847 9.54667 99.5714 10.48C99.9581 11.4133 100.151 12.4333 100.151 13.54C100.151 14.6467 99.9514 15.6667 99.5514 16.6C99.1647 17.5333 98.6247 18.3467 97.9314 19.04C97.2381 19.7333 96.4247 20.2733 95.4914 20.66C94.5581 21.0467 93.5514 21.24 92.4714 21.24ZM92.4714 19.08C93.2447 19.08 93.9514 18.94 94.5914 18.66C95.2447 18.38 95.8114 17.9933 96.2914 17.5C96.7714 16.9933 97.1447 16.4067 97.4114 15.74C97.6781 15.06 97.8114 14.3267 97.8114 13.54C97.8114 12.7533 97.6781 12.0267 97.4114 11.36C97.1447 10.6933 96.7714 10.1067 96.2914 9.6C95.8114 9.09333 95.2447 8.7 94.5914 8.42C93.9514 8.14 93.2447 8 92.4714 8C91.6981 8 90.9847 8.14 90.3314 8.42C89.6914 8.7 89.1314 9.09333 88.6514 9.6C88.1714 10.1067 87.7981 10.6933 87.5314 11.36C87.2781 12.0267 87.1514 12.7533 87.1514 13.54C87.1514 14.3267 87.2781 15.06 87.5314 15.74C87.7981 16.4067 88.1714 16.9933 88.6514 17.5C89.1314 17.9933 89.6981 18.38 90.3514 18.66C91.0047 18.94 91.7114 19.08 92.4714 19.08ZM107.79 21V6.1H113.21C114.21 6.1 115.09 6.28667 115.85 6.66C116.61 7.02 117.203 7.55333 117.63 8.26C118.07 8.95333 118.29 9.78667 118.29 10.76C118.29 11.7867 118.03 12.6667 117.51 13.4C117.003 14.1333 116.317 14.6667 115.45 15L118.89 21H116.21L112.55 14.5L114.09 15.4H110.15V21H107.79ZM110.15 13.3H113.25C113.797 13.3 114.27 13.1933 114.67 12.98C115.07 12.7667 115.377 12.4733 115.59 12.1C115.817 11.7133 115.93 11.26 115.93 10.74C115.93 10.22 115.817 9.77333 115.59 9.4C115.377 9.01333 115.07 8.72 114.67 8.52C114.27 8.30667 113.797 8.2 113.25 8.2H110.15V13.3ZM125.876 21V6.1H128.076L133.676 13.86H132.576L138.076 6.1H140.276V21H137.936V8.88L138.816 9.12L133.196 16.8H132.956L127.456 9.12L128.236 8.88V21H125.876ZM163.833 21.24C162.779 21.24 161.799 21.0467 160.893 20.66C159.999 20.2733 159.213 19.74 158.533 19.06C157.866 18.3667 157.346 17.5533 156.973 16.62C156.599 15.6867 156.413 14.66 156.413 13.54C156.413 12.4333 156.593 11.4133 156.953 10.48C157.326 9.53333 157.846 8.72 158.513 8.04C159.179 7.34667 159.959 6.81333 160.853 6.44C161.746 6.05333 162.726 5.86 163.793 5.86C164.846 5.86 165.786 6.04 166.612 6.4C167.453 6.76 168.159 7.23333 168.733 7.82C169.306 8.39333 169.719 9.02 169.973 9.7L167.873 10.72C167.566 9.90667 167.059 9.25333 166.353 8.76C165.646 8.25333 164.793 8 163.793 8C162.806 8 161.933 8.23333 161.173 8.7C160.413 9.16667 159.819 9.81333 159.393 10.64C158.979 11.4667 158.773 12.4333 158.773 13.54C158.773 14.6467 158.986 15.62 159.413 16.46C159.853 17.2867 160.453 17.9333 161.213 18.4C161.973 18.8533 162.846 19.08 163.833 19.08C164.659 19.08 165.413 18.9133 166.093 18.58C166.786 18.2333 167.339 17.7533 167.753 17.14C168.166 16.5133 168.373 15.7867 168.373 14.96V13.94L169.433 14.9H163.793V12.9H170.713V14.3C170.713 15.3933 170.526 16.3733 170.153 17.24C169.779 18.0933 169.273 18.82 168.633 19.42C167.993 20.02 167.259 20.4733 166.433 20.78C165.606 21.0867 164.739 21.24 163.833 21.24Z" fill="white"/>
<path d="M172 18H0V32H172V18Z" fill="#C060E6" mask="url(#path-1-inside-1_859_2616)"/>
</svg>
