<svg width="81" height="80" viewBox="0 0 81 80" fill="none" xmlns="http://www.w3.org/2000/svg">
<rect x="0.666992" width="58.1818" height="58.1818" rx="29.0909" fill="url(#paint0_linear_801_2839)" fill-opacity="0.1"/>
<path d="M10.505 44.5637L13.3068 45.7346V26.8537L8.22589 39.1064C7.36862 41.2391 8.39317 43.6855 10.505 44.5637ZM51.2777 36.8273L40.9068 11.7991C40.2586 10.2309 38.7323 9.26911 37.1223 9.22729C36.5786 9.22729 36.0141 9.31093 35.4704 9.54093L20.0604 15.9182C18.4923 16.5664 17.5304 18.0718 17.4886 19.6818C17.4677 20.2464 17.5723 20.8109 17.8023 21.3546L28.1732 46.3828C28.8213 47.9718 30.3686 48.9337 31.9995 48.9546C32.5432 48.9546 33.0868 48.85 33.6095 48.6409L48.9986 42.2637C51.1314 41.3855 52.1559 38.9391 51.2777 36.8273ZM32.0413 44.7728L21.6704 19.7655L37.0386 13.4091H37.0595L47.4095 38.3955L32.0413 44.7728Z" fill="url(#paint1_linear_801_2839)"/>
<path d="M28.215 24.3864C29.3698 24.3864 30.3059 23.4503 30.3059 22.2955C30.3059 21.1407 29.3698 20.2046 28.215 20.2046C27.0602 20.2046 26.1241 21.1407 26.1241 22.2955C26.1241 23.4503 27.0602 24.3864 28.215 24.3864Z" fill="url(#paint2_linear_801_2839)"/>
<path d="M17.5095 44.7728C17.5095 47.0728 19.3913 48.9546 21.6913 48.9546H24.7232L17.5095 31.5164V44.7728Z" fill="url(#paint3_linear_801_2839)"/>
<path d="M54.3026 61.8182V60H57.0298V60.9091H60.6662V59.0909H56.1207C55.1207 59.0909 54.3026 58.2728 54.3026 57.2727V54.5455C54.3026 53.5455 55.1207 52.7273 56.1207 52.7273H61.5753C62.5753 52.7273 63.3935 53.5455 63.3935 54.5455V56.3637H60.6662V55.4546H57.0298V57.2727H61.5753C62.5753 57.2727 63.3935 58.0909 63.3935 59.0909V61.8182C63.3935 62.8182 62.5753 63.6364 61.5753 63.6364H56.1207C55.1207 63.6364 54.3026 62.8182 54.3026 61.8182ZM67.9389 63.6364H73.3935C74.3935 63.6364 75.2117 62.8182 75.2117 61.8182V59.0909C75.2117 58.0909 74.3935 57.2727 73.3935 57.2727H68.848V55.4546H72.4844V56.3637H75.2117V54.5455C75.2117 53.5455 74.3935 52.7273 73.3935 52.7273H67.9389C66.9389 52.7273 66.1207 53.5455 66.1207 54.5455V57.2727C66.1207 58.2728 66.9389 59.0909 67.9389 59.0909H72.4844V60.9091H68.848V60H66.1207V61.8182C66.1207 62.8182 66.9389 63.6364 67.9389 63.6364ZM51.5753 54.5455C51.5753 53.5455 50.7571 52.7273 49.7571 52.7273H44.3026C43.3026 52.7273 42.4844 53.5455 42.4844 54.5455V61.8182C42.4844 62.8182 43.3026 63.6364 44.3026 63.6364H49.7571C50.7571 63.6364 51.5753 62.8182 51.5753 61.8182V60H48.848V60.9091H45.2116V55.4546H48.848V56.3637H51.5753V54.5455Z" fill="url(#paint4_linear_801_2839)"/>
<defs>
<linearGradient id="paint0_linear_801_2839" x1="0.666992" y1="0" x2="70.6363" y2="24.4521" gradientUnits="userSpaceOnUse">
<stop stop-color="#F85CA0"/>
<stop offset="0.465827" stop-color="#AD61FF"/>
<stop offset="0.982618" stop-color="#5CDFCB"/>
</linearGradient>
<linearGradient id="paint1_linear_801_2839" x1="7.92285" y1="9.22729" x2="59.2753" y2="28.9541" gradientUnits="userSpaceOnUse">
<stop stop-color="#FF4B9A"/>
<stop offset="0.465827" stop-color="#AD61FF"/>
<stop offset="0.982618" stop-color="#5CDFCB"/>
</linearGradient>
<linearGradient id="paint2_linear_801_2839" x1="7.92285" y1="9.22729" x2="59.2753" y2="28.9541" gradientUnits="userSpaceOnUse">
<stop stop-color="#FF4B9A"/>
<stop offset="0.465827" stop-color="#AD61FF"/>
<stop offset="0.982618" stop-color="#5CDFCB"/>
</linearGradient>
<linearGradient id="paint3_linear_801_2839" x1="7.92285" y1="9.22729" x2="59.2753" y2="28.9541" gradientUnits="userSpaceOnUse">
<stop stop-color="#FF4B9A"/>
<stop offset="0.465827" stop-color="#AD61FF"/>
<stop offset="0.982618" stop-color="#5CDFCB"/>
</linearGradient>
<linearGradient id="paint4_linear_801_2839" x1="42.4844" y1="52.7273" x2="63.5235" y2="74.7849" gradientUnits="userSpaceOnUse">
<stop stop-color="#FF4B9A"/>
<stop offset="0.465827" stop-color="#AD61FF"/>
<stop offset="0.982618" stop-color="#5CDFCB"/>
</linearGradient>
</defs>
</svg>
