<svg width="80" height="80" viewBox="0 0 80 80" fill="none" xmlns="http://www.w3.org/2000/svg">
<rect width="58.1818" height="58.1818" rx="29.0909" fill="url(#paint0_linear_801_2848)" fill-opacity="0.1"/>
<path d="M26.9997 35.7191L22.4625 31.1818L26.9997 26.6446L24.0516 23.6755L16.5452 31.1818L24.0516 38.6882L26.9997 35.7191Z" fill="url(#paint1_linear_801_2848)"/>
<path d="M34.1297 38.6882L41.6361 31.1818L34.1297 23.6755L31.1816 26.6446L35.7188 31.1818L31.1816 35.7191L34.1297 38.6882Z" fill="url(#paint2_linear_801_2848)"/>
<path d="M43.727 12.3636H34.987C34.1088 9.93819 31.8088 8.18182 29.0906 8.18182C26.3725 8.18182 24.0725 9.93819 23.1943 12.3636H14.4543C14.1616 12.3636 13.8897 12.3846 13.6179 12.4473C12.8025 12.6146 12.0706 13.0327 11.5061 13.5973C11.1297 13.9736 10.8161 14.4336 10.607 14.9355C10.3979 15.4164 10.2725 15.96 10.2725 16.5455V45.8182C10.2725 46.3827 10.3979 46.9473 10.607 47.4491C10.8161 47.9509 11.1297 48.39 11.5061 48.7873C12.0706 49.3518 12.8025 49.77 13.6179 49.9373C13.8897 49.9791 14.1616 50 14.4543 50H43.727C46.027 50 47.9088 48.1182 47.9088 45.8182V16.5455C47.9088 14.2455 46.027 12.3636 43.727 12.3636ZM29.0906 11.8409C29.9479 11.8409 30.6588 12.5518 30.6588 13.4091C30.6588 14.2664 29.9479 14.9773 29.0906 14.9773C28.2334 14.9773 27.5225 14.2664 27.5225 13.4091C27.5225 12.5518 28.2334 11.8409 29.0906 11.8409ZM43.727 45.8182H14.4543V16.5455H43.727V45.8182Z" fill="url(#paint3_linear_801_2848)"/>
<path d="M69.0267 48.5545L66.4631 45.9909L54.9358 57.5182L57.4995 60.0818L69.0267 48.5545ZM76.7358 45.9909L57.4995 65.2273L49.8995 57.6455L47.3358 60.2091L57.4995 70.3727L79.3176 48.5545L76.7358 45.9909ZM37.0449 60.2091L47.2086 70.3727L49.7722 67.8091L39.6267 57.6455L37.0449 60.2091Z" fill="url(#paint4_linear_801_2848)"/>
<defs>
<linearGradient id="paint0_linear_801_2848" x1="0" y1="0" x2="69.9693" y2="24.4521" gradientUnits="userSpaceOnUse">
<stop stop-color="#F85CA0"/>
<stop offset="0.465827" stop-color="#AD61FF"/>
<stop offset="0.982618" stop-color="#5CDFCB"/>
</linearGradient>
<linearGradient id="paint1_linear_801_2848" x1="10.2725" y1="8.18182" x2="56.4896" y2="22.7181" gradientUnits="userSpaceOnUse">
<stop stop-color="#FF4B9A"/>
<stop offset="0.465827" stop-color="#AD61FF"/>
<stop offset="0.982618" stop-color="#5CDFCB"/>
</linearGradient>
<linearGradient id="paint2_linear_801_2848" x1="10.2725" y1="8.18182" x2="56.4896" y2="22.7181" gradientUnits="userSpaceOnUse">
<stop stop-color="#FF4B9A"/>
<stop offset="0.465827" stop-color="#AD61FF"/>
<stop offset="0.982618" stop-color="#5CDFCB"/>
</linearGradient>
<linearGradient id="paint3_linear_801_2848" x1="10.2725" y1="8.18182" x2="56.4896" y2="22.7181" gradientUnits="userSpaceOnUse">
<stop stop-color="#FF4B9A"/>
<stop offset="0.465827" stop-color="#AD61FF"/>
<stop offset="0.982618" stop-color="#5CDFCB"/>
</linearGradient>
<linearGradient id="paint4_linear_801_2848" x1="37.0449" y1="45.9909" x2="78.7719" y2="71.2734" gradientUnits="userSpaceOnUse">
<stop stop-color="#FF4B9A"/>
<stop offset="0.465827" stop-color="#AD61FF"/>
<stop offset="0.982618" stop-color="#5CDFCB"/>
</linearGradient>
</defs>
</svg>
