<svg width="81" height="80" viewBox="0 0 81 80" fill="none" xmlns="http://www.w3.org/2000/svg">
<rect x="0.333984" width="58.1818" height="58.1818" rx="29.0909" fill="url(#paint0_linear_801_2857)" fill-opacity="0.1"/>
<path d="M29.4038 8.18182C17.862 8.18182 8.51562 17.5491 8.51562 29.0909C8.51562 40.6327 17.862 50 29.4038 50C40.9665 50 50.3338 40.6327 50.3338 29.0909C50.3338 17.5491 40.9665 8.18182 29.4038 8.18182ZM43.8938 20.7273H37.7256C37.0565 18.1136 36.0947 15.6046 34.8402 13.2836C38.6874 14.6009 41.8865 17.2773 43.8938 20.7273ZM29.4247 12.4473C31.1602 14.9564 32.5193 17.7373 33.4184 20.7273H25.4311C26.3302 17.7373 27.6893 14.9564 29.4247 12.4473ZM13.2411 33.2727C12.9065 31.9345 12.6974 30.5336 12.6974 29.0909C12.6974 27.6482 12.9065 26.2473 13.2411 24.9091H20.3084C20.1411 26.2891 20.0156 27.6691 20.0156 29.0909C20.0156 30.5127 20.1411 31.8927 20.3084 33.2727H13.2411ZM14.9556 37.4545H21.1238C21.7929 40.0682 22.7547 42.5773 24.0093 44.8982C20.162 43.5809 16.9629 40.9255 14.9556 37.4545ZM21.1238 20.7273H14.9556C16.9629 17.2564 20.162 14.6009 24.0093 13.2836C22.7547 15.6046 21.7929 18.1136 21.1238 20.7273ZM29.4247 45.7345C27.6893 43.2255 26.3302 40.4445 25.4311 37.4545H33.4184C32.5193 40.4445 31.1602 43.2255 29.4247 45.7345ZM34.3174 33.2727H24.532C24.3438 31.8927 24.1974 30.5127 24.1974 29.0909C24.1974 27.6691 24.3438 26.2682 24.532 24.9091H34.3174C34.5056 26.2682 34.652 27.6691 34.652 29.0909C34.652 30.5127 34.5056 31.8927 34.3174 33.2727ZM34.8402 44.8982C36.0947 42.5773 37.0565 40.0682 37.7256 37.4545H43.8938C41.8865 40.9045 38.6874 43.5809 34.8402 44.8982ZM38.5411 33.2727C38.7084 31.8927 38.8338 30.5127 38.8338 29.0909C38.8338 27.6691 38.7084 26.2891 38.5411 24.9091H45.6083C45.9429 26.2473 46.152 27.6482 46.152 29.0909C46.152 30.5336 45.9429 31.9345 45.6083 33.2727H38.5411Z" fill="url(#paint1_linear_801_2857)"/>
<path d="M71.2423 43.6364H45.7877C43.7695 43.6364 42.1514 45.2727 42.1514 47.2727V69.0909C42.1514 71.0909 43.7695 72.7273 45.7877 72.7273H53.0605V69.0909H45.7877V50.9091H71.2423V69.0909H63.9696V72.7273H71.2423C73.2423 72.7273 74.8786 71.0909 74.8786 69.0909V47.2727C74.8786 45.2727 73.2605 43.6364 71.2423 43.6364ZM58.515 54.5454L51.2423 61.8182H56.6968V72.7273H60.3332V61.8182H65.7877L58.515 54.5454Z" fill="url(#paint2_linear_801_2857)"/>
<defs>
<linearGradient id="paint0_linear_801_2857" x1="0.333984" y1="0" x2="70.3033" y2="24.4521" gradientUnits="userSpaceOnUse">
<stop stop-color="#F85CA0"/>
<stop offset="0.465827" stop-color="#AD61FF"/>
<stop offset="0.982618" stop-color="#5CDFCB"/>
</linearGradient>
<linearGradient id="paint1_linear_801_2857" x1="8.51562" y1="8.18182" x2="58.8061" y2="25.7567" gradientUnits="userSpaceOnUse">
<stop stop-color="#FF4B9A"/>
<stop offset="0.465827" stop-color="#AD61FF"/>
<stop offset="0.982618" stop-color="#5CDFCB"/>
</linearGradient>
<linearGradient id="paint2_linear_801_2857" x1="42.1514" y1="43.6364" x2="80.4033" y2="58.6752" gradientUnits="userSpaceOnUse">
<stop stop-color="#FF4B9A"/>
<stop offset="0.465827" stop-color="#AD61FF"/>
<stop offset="0.982618" stop-color="#5CDFCB"/>
</linearGradient>
</defs>
</svg>
