<svg width="767" height="182" viewBox="0 0 767 182" fill="none" xmlns="http://www.w3.org/2000/svg">
<rect width="417" height="31" fill="white" fill-opacity="0.2"/>
<path d="M7.992 24.336C6.744 24.336 5.656 24.112 4.728 23.664C3.8 23.216 3.08 22.552 2.568 21.672C2.056 20.776 1.8 19.68 1.8 18.384V7.2H3.792V18.408C3.792 19.784 4.16 20.816 4.896 21.504C5.632 22.192 6.664 22.536 7.992 22.536C9.32 22.536 10.352 22.192 11.088 21.504C11.824 20.816 12.192 19.784 12.192 18.408V7.2H14.208V18.384C14.208 19.68 13.952 20.776 13.44 21.672C12.928 22.552 12.2 23.216 11.256 23.664C10.328 24.112 9.24 24.336 7.992 24.336ZM24.1444 24V7.2H28.0564L33.9124 22.728H34.2244V7.2H36.2164V24H32.3044L26.4724 8.448H26.1364V24H24.1444ZM46.3219 24V7.2H48.3379V22.176H56.8339V24H46.3219ZM65.6634 24V7.2H76.0074V9.024H67.6794V14.64H75.3354V16.464H67.6794V22.176H76.1274V24H65.6634ZM84.1069 24L89.2909 7.2H92.8429L98.0269 24H95.9389L94.6429 19.752H87.4909L86.1949 24H84.1069ZM87.9949 17.928H94.1149L91.2349 8.424H90.8989L87.9949 17.928ZM112.306 24.336C111.09 24.336 110.002 24.12 109.042 23.688C108.082 23.256 107.322 22.608 106.762 21.744C106.218 20.864 105.946 19.768 105.946 18.456V17.952H107.938V18.456C107.938 19.848 108.346 20.888 109.162 21.576C109.978 22.248 111.026 22.584 112.306 22.584C113.618 22.584 114.618 22.288 115.306 21.696C115.994 21.104 116.338 20.36 116.338 19.464C116.338 18.84 116.178 18.344 115.858 17.976C115.554 17.608 115.122 17.312 114.562 17.088C114.002 16.848 113.346 16.64 112.594 16.464L111.346 16.152C110.37 15.896 109.506 15.584 108.754 15.216C108.002 14.848 107.41 14.368 106.978 13.776C106.562 13.168 106.354 12.392 106.354 11.448C106.354 10.504 106.586 9.688 107.05 9C107.53 8.312 108.194 7.784 109.042 7.416C109.906 7.048 110.898 6.864 112.018 6.864C113.154 6.864 114.17 7.064 115.066 7.464C115.978 7.848 116.69 8.424 117.202 9.192C117.73 9.944 117.994 10.896 117.994 12.048V13.056H116.002V12.048C116.002 11.232 115.826 10.576 115.474 10.08C115.138 9.584 114.666 9.216 114.058 8.976C113.466 8.736 112.786 8.616 112.018 8.616C110.914 8.616 110.026 8.864 109.354 9.36C108.682 9.84 108.346 10.528 108.346 11.424C108.346 12.016 108.49 12.496 108.778 12.864C109.066 13.232 109.474 13.536 110.002 13.776C110.53 14 111.162 14.2 111.898 14.376L113.146 14.688C114.122 14.896 114.994 15.184 115.762 15.552C116.546 15.904 117.17 16.392 117.634 17.016C118.098 17.624 118.33 18.424 118.33 19.416C118.33 20.408 118.082 21.272 117.586 22.008C117.09 22.744 116.386 23.32 115.474 23.736C114.578 24.136 113.522 24.336 112.306 24.336ZM127.673 24V7.2H129.689V14.664H137.561V7.2H139.577V24H137.561V16.488H129.689V24H127.673ZM165.562 24V9.024H160.162V7.2H172.978V9.024H167.578V24H165.562ZM181.783 24V7.2H183.799V14.664H191.671V7.2H193.687V24H191.671V16.488H183.799V24H181.783ZM203.773 24V7.2H214.117V9.024H205.789V14.64H213.445V16.464H205.789V22.176H214.237V24H203.773ZM237.481 24L234.745 7.2H236.761L239.137 22.704H239.473L242.569 7.2H246.169L249.241 22.704H249.577L251.953 7.2H253.969L251.233 24H247.633L244.537 8.4H244.201L241.105 24H237.481ZM268.948 24.336C266.948 24.336 265.348 23.76 264.148 22.608C262.964 21.44 262.372 19.744 262.372 17.52V13.68C262.372 11.456 262.964 9.768 264.148 8.616C265.348 7.448 266.948 6.864 268.948 6.864C270.964 6.864 272.564 7.448 273.748 8.616C274.948 9.768 275.548 11.456 275.548 13.68V17.52C275.548 19.744 274.948 21.44 273.748 22.608C272.564 23.76 270.964 24.336 268.948 24.336ZM268.948 22.536C270.404 22.536 271.532 22.104 272.332 21.24C273.132 20.36 273.532 19.144 273.532 17.592V13.608C273.532 12.056 273.132 10.848 272.332 9.984C271.532 9.104 270.404 8.664 268.948 8.664C267.508 8.664 266.388 9.104 265.588 9.984C264.788 10.848 264.388 12.056 264.388 13.608V17.592C264.388 19.144 264.788 20.36 265.588 21.24C266.388 22.104 267.508 22.536 268.948 22.536ZM285.147 24V7.2H291.939C292.979 7.2 293.891 7.384 294.675 7.752C295.475 8.104 296.099 8.616 296.547 9.288C296.995 9.944 297.219 10.736 297.219 11.664V11.928C297.219 13.032 296.955 13.904 296.427 14.544C295.899 15.184 295.275 15.616 294.555 15.84V16.176C295.131 16.192 295.603 16.384 295.971 16.752C296.355 17.104 296.547 17.64 296.547 18.36V24H294.555V18.6C294.555 18.12 294.419 17.752 294.147 17.496C293.891 17.24 293.499 17.112 292.971 17.112H287.163V24H285.147ZM287.163 15.288H291.747C292.851 15.288 293.699 15.024 294.291 14.496C294.899 13.952 295.203 13.2 295.203 12.24V12.072C295.203 11.112 294.907 10.368 294.315 9.84C293.723 9.296 292.867 9.024 291.747 9.024H287.163V15.288ZM306.528 24V7.2H308.544V22.176H317.04V24H306.528ZM325.077 24V22.2H327.429V9H325.077V7.2H331.629C333.837 7.2 335.541 7.76 336.741 8.88C337.957 10 338.565 11.72 338.565 14.04V17.16C338.565 19.496 337.957 21.224 336.741 22.344C335.541 23.448 333.837 24 331.629 24H325.077ZM329.445 22.176H331.629C333.261 22.176 334.493 21.776 335.325 20.976C336.157 20.176 336.573 18.936 336.573 17.256V13.968C336.573 12.256 336.157 11.008 335.325 10.224C334.493 9.44 333.261 9.048 331.629 9.048H329.445V22.176ZM366.524 24.336C364.524 24.336 362.924 23.76 361.724 22.608C360.54 21.44 359.948 19.744 359.948 17.52V13.68C359.948 11.456 360.54 9.768 361.724 8.616C362.924 7.448 364.524 6.864 366.524 6.864C368.54 6.864 370.14 7.448 371.324 8.616C372.524 9.768 373.124 11.456 373.124 13.68V17.52C373.124 19.744 372.524 21.44 371.324 22.608C370.14 23.76 368.54 24.336 366.524 24.336ZM366.524 22.536C367.98 22.536 369.108 22.104 369.908 21.24C370.708 20.36 371.108 19.144 371.108 17.592V13.608C371.108 12.056 370.708 10.848 369.908 9.984C369.108 9.104 367.98 8.664 366.524 8.664C365.084 8.664 363.964 9.104 363.164 9.984C362.364 10.848 361.964 12.056 361.964 13.608V17.592C361.964 19.144 362.364 20.36 363.164 21.24C363.964 22.104 365.084 22.536 366.524 22.536ZM382.722 24V7.2H392.874V9.024H384.738V14.664H392.226V16.488H384.738V24H382.722Z" fill="white"/>
<path d="M10.032 155V48.6H47.272L65.664 141.32H68.4L86.792 48.6H124.032V155H104.576V63.344H101.84L83.6 155H50.464L32.224 63.344H29.488V155H10.032ZM179.031 157.128C171.532 157.128 164.895 155.557 159.119 152.416C153.444 149.173 148.986 144.664 145.743 138.888C142.602 133.011 141.031 126.12 141.031 118.216V116.392C141.031 108.488 142.602 101.648 145.743 95.872C148.884 89.9947 153.292 85.4853 158.967 82.344C164.642 79.1013 171.228 77.48 178.727 77.48C186.124 77.48 192.559 79.152 198.031 82.496C203.503 85.7387 207.759 90.2987 210.799 96.176C213.839 101.952 215.359 108.691 215.359 116.392V122.928H160.487C160.69 128.096 162.615 132.301 166.263 135.544C169.911 138.787 174.37 140.408 179.639 140.408C185.01 140.408 188.962 139.243 191.495 136.912C194.028 134.581 195.954 131.997 197.271 129.16L212.927 137.368C211.508 140.003 209.431 142.891 206.695 146.032C204.06 149.072 200.514 151.707 196.055 153.936C191.596 156.064 185.922 157.128 179.031 157.128ZM160.639 108.64H195.903C195.498 104.283 193.724 100.787 190.583 98.152C187.543 95.5173 183.54 94.2 178.575 94.2C173.407 94.2 169.303 95.5173 166.263 98.152C163.223 100.787 161.348 104.283 160.639 108.64ZM258.762 155C253.797 155 249.744 153.48 246.602 150.44C243.562 147.299 242.042 143.144 242.042 137.976V95.416H223.194V79.608H242.042V56.2H261.194V79.608H281.866V95.416H261.194V134.632C261.194 137.672 262.613 139.192 265.45 139.192H280.042V155H258.762ZM322.611 157.128C317.24 157.128 312.427 156.216 308.171 154.392C303.915 152.467 300.52 149.731 297.987 146.184C295.555 142.536 294.339 138.128 294.339 132.96C294.339 127.792 295.555 123.485 297.987 120.04C300.52 116.493 303.965 113.859 308.323 112.136C312.781 110.312 317.848 109.4 323.523 109.4H344.195V105.144C344.195 101.597 343.08 98.7093 340.851 96.48C338.621 94.1493 335.075 92.984 330.211 92.984C325.448 92.984 321.901 94.0987 319.571 96.328C317.24 98.456 315.72 101.243 315.011 104.688L297.379 98.76C298.595 94.9093 300.52 91.4133 303.155 88.272C305.891 85.0293 309.488 82.4453 313.947 80.52C318.507 78.4933 324.029 77.48 330.515 77.48C340.445 77.48 348.299 79.9627 354.075 84.928C359.851 89.8933 362.739 97.088 362.739 106.512V134.632C362.739 137.672 364.157 139.192 366.995 139.192H373.075V155H360.307C356.557 155 353.467 154.088 351.035 152.264C348.603 150.44 347.387 148.008 347.387 144.968V144.816H344.499C344.093 146.032 343.181 147.653 341.763 149.68C340.344 151.605 338.115 153.328 335.075 154.848C332.035 156.368 327.88 157.128 322.611 157.128ZM325.955 141.624C331.325 141.624 335.683 140.155 339.027 137.216C342.472 134.176 344.195 130.173 344.195 125.208V123.688H324.891C321.344 123.688 318.557 124.448 316.531 125.968C314.504 127.488 313.491 129.616 313.491 132.352C313.491 135.088 314.555 137.317 316.683 139.04C318.811 140.763 321.901 141.624 325.955 141.624ZM398.581 155L374.565 79.608H394.933L412.413 141.016H415.149L432.629 79.608H452.997L428.981 155H398.581ZM498.172 157.128C490.673 157.128 484.036 155.557 478.26 152.416C472.585 149.173 468.126 144.664 464.884 138.888C461.742 133.011 460.172 126.12 460.172 118.216V116.392C460.172 108.488 461.742 101.648 464.884 95.872C468.025 89.9947 472.433 85.4853 478.108 82.344C483.782 79.1013 490.369 77.48 497.868 77.48C505.265 77.48 511.7 79.152 517.172 82.496C522.644 85.7387 526.9 90.2987 529.94 96.176C532.98 101.952 534.5 108.691 534.5 116.392V122.928H479.628C479.83 128.096 481.756 132.301 485.404 135.544C489.052 138.787 493.51 140.408 498.78 140.408C504.15 140.408 508.102 139.243 510.636 136.912C513.169 134.581 515.094 131.997 516.412 129.16L532.068 137.368C530.649 140.003 528.572 142.891 525.836 146.032C523.201 149.072 519.654 151.707 515.196 153.936C510.737 156.064 505.062 157.128 498.172 157.128ZM479.78 108.64H515.044C514.638 104.283 512.865 100.787 509.724 98.152C506.684 95.5173 502.681 94.2 497.716 94.2C492.548 94.2 488.444 95.5173 485.404 98.152C482.364 100.787 480.489 104.283 479.78 108.64ZM551.546 155V79.608H570.394V88.12H573.13C574.245 85.08 576.069 82.8507 578.602 81.432C581.237 80.0133 584.277 79.304 587.722 79.304H596.842V96.328H587.418C582.554 96.328 578.552 97.6453 575.41 100.28C572.269 102.813 570.698 106.765 570.698 112.136V155H551.546ZM641.343 157.128C631.513 157.128 623.457 155 617.175 150.744C610.892 146.488 607.092 140.408 605.775 132.504L623.407 127.944C624.116 131.491 625.281 134.277 626.903 136.304C628.625 138.331 630.703 139.8 633.135 140.712C635.668 141.523 638.404 141.928 641.343 141.928C645.801 141.928 649.095 141.168 651.223 139.648C653.351 138.027 654.415 136.051 654.415 133.72C654.415 131.389 653.401 129.616 651.375 128.4C649.348 127.083 646.105 126.019 641.647 125.208L637.391 124.448C632.121 123.435 627.308 122.067 622.951 120.344C618.593 118.52 615.097 116.037 612.463 112.896C609.828 109.755 608.511 105.701 608.511 100.736C608.511 93.2373 611.247 87.512 616.719 83.56C622.191 79.5067 629.385 77.48 638.303 77.48C646.713 77.48 653.705 79.3547 659.279 83.104C664.852 86.8533 668.5 91.768 670.223 97.848L652.439 103.32C651.628 99.4693 649.956 96.7333 647.423 95.112C644.991 93.4907 641.951 92.68 638.303 92.68C634.655 92.68 631.868 93.3387 629.943 94.656C628.017 95.872 627.055 97.5947 627.055 99.824C627.055 102.256 628.068 104.08 630.095 105.296C632.121 106.411 634.857 107.272 638.303 107.88L642.559 108.64C648.233 109.653 653.351 111.021 657.911 112.744C662.572 114.365 666.22 116.747 668.855 119.888C671.591 122.928 672.959 127.083 672.959 132.352C672.959 140.256 670.071 146.387 664.295 150.744C658.62 155 650.969 157.128 641.343 157.128ZM724.094 157.128C716.595 157.128 709.958 155.557 704.182 152.416C698.507 149.173 694.048 144.664 690.806 138.888C687.664 133.011 686.094 126.12 686.094 118.216V116.392C686.094 108.488 687.664 101.648 690.806 95.872C693.947 89.9947 698.355 85.4853 704.03 82.344C709.704 79.1013 716.291 77.48 723.79 77.48C731.187 77.48 737.622 79.152 743.094 82.496C748.566 85.7387 752.822 90.2987 755.862 96.176C758.902 101.952 760.422 108.691 760.422 116.392V122.928H705.55C705.752 128.096 707.678 132.301 711.326 135.544C714.974 138.787 719.432 140.408 724.702 140.408C730.072 140.408 734.024 139.243 736.558 136.912C739.091 134.581 741.016 131.997 742.334 129.16L757.99 137.368C756.571 140.003 754.494 142.891 751.758 146.032C749.123 149.072 745.576 151.707 741.118 153.936C736.659 156.064 730.984 157.128 724.094 157.128ZM705.702 108.64H740.966C740.56 104.283 738.787 100.787 735.646 98.152C732.606 95.5173 728.603 94.2 723.638 94.2C718.47 94.2 714.366 95.5173 711.326 98.152C708.286 100.787 706.411 104.283 705.702 108.64Z" fill="url(#paint0_linear_801_2718)"/>
<defs>
<linearGradient id="paint0_linear_801_2718" x1="0" y1="23" x2="269.407" y2="477.167" gradientUnits="userSpaceOnUse">
<stop stop-color="#FF4B9A"/>
<stop offset="0.465827" stop-color="#AD61FF"/>
<stop offset="0.982618" stop-color="#5CDFCB"/>
</linearGradient>
</defs>
</svg>
