<svg width="32" height="32" viewBox="0 0 32 32" fill="none" xmlns="http://www.w3.org/2000/svg">
<path d="M29.0001 15.9995C28.9937 19.1756 27.8281 22.2401 25.7221 24.6176C23.6162 26.9952 20.7147 28.5222 17.5626 28.912C17.4923 28.9189 17.4213 28.9112 17.3541 28.8893C17.2868 28.8674 17.2249 28.8319 17.172 28.785C17.1192 28.738 17.0767 28.6806 17.0471 28.6164C17.0175 28.5522 17.0015 28.4826 17.0001 28.412V18.9995H20.0001C20.1369 18.9997 20.2722 18.9719 20.3978 18.9178C20.5234 18.8637 20.6366 18.7844 20.7303 18.6848C20.824 18.5852 20.8963 18.4675 20.9427 18.3389C20.9891 18.2102 21.0087 18.0734 21.0001 17.937C20.978 17.6784 20.8586 17.4378 20.6661 17.2638C20.4735 17.0898 20.2221 16.9954 19.9626 16.9995H17.0001V13.9995C17.0001 13.469 17.2108 12.9603 17.5859 12.5852C17.961 12.2102 18.4697 11.9995 19.0001 11.9995H21.0001C21.1369 11.9997 21.2722 11.9719 21.3978 11.9178C21.5234 11.8637 21.6366 11.7844 21.7303 11.6848C21.824 11.5852 21.8963 11.4675 21.9427 11.3389C21.9891 11.2102 22.0087 11.0734 22.0001 10.937C21.978 10.6784 21.8586 10.4378 21.6661 10.2638C21.4735 10.0898 21.2221 9.99535 20.9626 9.99946H19.0001C17.9393 9.99946 16.9218 10.4209 16.1717 11.171C15.4216 11.9212 15.0001 12.9386 15.0001 13.9995V16.9995H12.0001C11.8634 16.9992 11.728 17.027 11.6024 17.0811C11.4768 17.1352 11.3637 17.2145 11.27 17.3141C11.1762 17.4137 11.1039 17.5314 11.0575 17.6601C11.0111 17.7887 10.9916 17.9255 11.0001 18.062C11.0222 18.3205 11.1416 18.5611 11.3342 18.7351C11.5267 18.9091 11.7781 19.0036 12.0376 18.9995H15.0001V28.412C15.0005 28.4821 14.9861 28.5514 14.9579 28.6156C14.9297 28.6798 14.8883 28.7373 14.8365 28.7844C14.7846 28.8316 14.7234 28.8673 14.6569 28.8893C14.5903 28.9112 14.5199 28.919 14.4501 28.912C7.85012 28.112 2.75012 22.3745 3.01262 15.512C3.15998 12.1229 4.62619 8.92575 7.09829 6.60284C9.57039 4.27993 12.8526 3.01533 16.2442 3.07895C19.6358 3.14257 22.8682 4.52939 25.2515 6.94338C27.6347 9.35737 28.98 12.6073 29.0001 15.9995Z" fill="white" fill-opacity="0.8"/>
</svg>
